ISO-10303-21;
HEADER;
/* Generated by software containing ST-Developer
 * from STEP Tools, Inc. (www.steptools.com) 
 */

FILE_DESCRIPTION(
/* description */ (''),
/* implementation_level */ '2;1');

FILE_NAME(
/* name */ 'pop n keycap.step',
/* time_stamp */ '2025-12-24T03:07:05-08:00',
/* author */ (''),
/* organization */ (''),
/* preprocessor_version */ 'ST-DEVELOPER v20.1',
/* originating_system */ 'Autodesk Translation Framework v14.21.0.0',
/* authorisation */ '');

FILE_SCHEMA (('AUTOMOTIVE_DESIGN { 1 0 10303 214 3 1 1 }'));
ENDSEC;

DATA;
#10=MECHANICAL_DESIGN_GEOMETRIC_PRESENTATION_REPRESENTATION('',(#17,#18,
#19,#20),#1696);
#11=SHAPE_REPRESENTATION_RELATIONSHIP('SRR','None',#1703,#12);
#12=ADVANCED_BREP_SHAPE_REPRESENTATION('',(#21,#22,#23,#24),#1695);
#13=TOROIDAL_SURFACE('',#1015,6.5,3.);
#14=TOROIDAL_SURFACE('',#1018,5.5,3.);
#15=(
BOUNDED_CURVE()
B_SPLINE_CURVE(2,(#1607,#1608,#1609),.UNSPECIFIED.,.F.,.F.)
B_SPLINE_CURVE_WITH_KNOTS((3,3),(-1.57127771320981,-0.564407498843549),
 .UNSPECIFIED.)
CURVE()
GEOMETRIC_REPRESENTATION_ITEM()
RATIONAL_B_SPLINE_CURVE((1.,0.871147070843288,0.989999894739058))
REPRESENTATION_ITEM('')
);
#16=(
BOUNDED_CURVE()
B_SPLINE_CURVE(2,(#1679,#1680,#1681,#1682,#1683),.UNSPECIFIED.,.F.,.F.)
B_SPLINE_CURVE_WITH_KNOTS((3,2,3),(0.496370836862659,0.523742308301176,
1.57122692490353),.UNSPECIFIED.)
CURVE()
GEOMETRIC_REPRESENTATION_ITEM()
RATIONAL_B_SPLINE_CURVE((0.993177614749715,0.996497278938082,1.,0.865953628512476,
1.))
REPRESENTATION_ITEM('')
);
#17=STYLED_ITEM('',(#1713),#21);
#18=STYLED_ITEM('',(#1712),#22);
#19=STYLED_ITEM('',(#1712),#23);
#20=STYLED_ITEM('',(#1712),#24);
#21=MANIFOLD_SOLID_BREP('keycap',#932);
#22=MANIFOLD_SOLID_BREP('Body18',#933);
#23=MANIFOLD_SOLID_BREP('Body19',#934);
#24=MANIFOLD_SOLID_BREP('Body20',#935);
#25=CIRCLE('',#972,1.);
#26=CIRCLE('',#975,1.);
#27=CIRCLE('',#977,1.);
#28=CIRCLE('',#980,1.);
#29=CIRCLE('',#1011,21.5245357197842);
#30=CIRCLE('',#1012,25.000000372529);
#31=CIRCLE('',#1013,25.000000372529);
#32=CIRCLE('',#1016,3.);
#33=CIRCLE('',#1017,3.5);
#34=CIRCLE('',#1019,3.);
#35=CIRCLE('',#1020,2.5);
#36=CYLINDRICAL_SURFACE('',#971,1.);
#37=CYLINDRICAL_SURFACE('',#976,1.);
#38=CYLINDRICAL_SURFACE('',#981,1.);
#39=CYLINDRICAL_SURFACE('',#983,1.);
#40=FACE_BOUND('',#122,.T.);
#41=FACE_BOUND('',#123,.T.);
#42=FACE_BOUND('',#134,.T.);
#43=FACE_BOUND('',#161,.T.);
#44=FACE_BOUND('',#173,.T.);
#45=B_SPLINE_CURVE_WITH_KNOTS('',3,(#1307,#1308,#1309,#1310,#1311,#1312,
#1313),.UNSPECIFIED.,.F.,.F.,(4,3,4),(0.150897618208351,0.238619581528952,
0.302598016811808),.UNSPECIFIED.);
#46=B_SPLINE_CURVE_WITH_KNOTS('',3,(#1317,#1318,#1319,#1320,#1321,#1322,
#1323),.UNSPECIFIED.,.F.,.F.,(4,3,4),(0.302598017928878,0.398964603368901,
0.45365695066268),.UNSPECIFIED.);
#47=B_SPLINE_CURVE_WITH_KNOTS('',3,(#1339,#1340,#1341,#1342,#1343,#1344,
#1345),.UNSPECIFIED.,.F.,.F.,(4,3,4),(-0.151058932733803,-0.0538936072107823,
0.),.UNSPECIFIED.);
#48=B_SPLINE_CURVE_WITH_KNOTS('',3,(#1349,#1350,#1351,#1352,#1353,#1354,
#1355),.UNSPECIFIED.,.F.,.F.,(4,3,4),(0.,0.0925885499641337,0.151700398603459),
 .UNSPECIFIED.);
#49=(
BOUNDED_SURFACE()
B_SPLINE_SURFACE(1,2,((#1290,#1291,#1292),(#1293,#1294,#1295)),
 .UNSPECIFIED.,.F.,.F.,.F.)
B_SPLINE_SURFACE_WITH_KNOTS((2,2),(3,3),(0.0409252717549869,0.176001053109596),
(-3.29548329150624,-2.98897080830082),.UNSPECIFIED.)
GEOMETRIC_REPRESENTATION_ITEM()
RATIONAL_B_SPLINE_SURFACE(((1.,0.988279230112663,1.),(1.,0.988279230112663,
1.)))
REPRESENTATION_ITEM('')
SURFACE()
);
#50=(
BOUNDED_SURFACE()
B_SPLINE_SURFACE(1,2,((#1398,#1399,#1400),(#1401,#1402,#1403)),
 .UNSPECIFIED.,.F.,.F.,.F.)
B_SPLINE_SURFACE_WITH_KNOTS((2,2),(3,3),(0.0369488049356129,0.182273939115766),
(-3.30712785267052,-2.97742394601753),.UNSPECIFIED.)
GEOMETRIC_REPRESENTATION_ITEM()
RATIONAL_B_SPLINE_SURFACE(((1.,0.986442661547408,1.),(1.,0.986442661547408,
1.)))
REPRESENTATION_ITEM('')
SURFACE()
);
#51=(
BOUNDED_SURFACE()
B_SPLINE_SURFACE(2,2,((#1542,#1543,#1544,#1545,#1546,#1547,#1548,#1549,
#1550),(#1551,#1552,#1553,#1554,#1555,#1556,#1557,#1558,#1559),(#1560,#1561,
#1562,#1563,#1564,#1565,#1566,#1567,#1568),(#1569,#1570,#1571,#1572,#1573,
#1574,#1575,#1576,#1577),(#1578,#1579,#1580,#1581,#1582,#1583,#1584,#1585,
#1586),(#1587,#1588,#1589,#1590,#1591,#1592,#1593,#1594,#1595),(#1596,#1597,
#1598,#1599,#1600,#1601,#1602,#1603,#1604)),.UNSPECIFIED.,.F.,.T.,.F.)
B_SPLINE_SURFACE_WITH_KNOTS((3,2,2,3),(3,2,2,2,3),(-1.57127771320981,-0.523759237736604,
0.523759237736604,1.57127771320981),(0.,1.5707963267949,3.14159265358979,
4.71238898038469,6.28318530717959),.UNSPECIFIED.)
GEOMETRIC_REPRESENTATION_ITEM()
RATIONAL_B_SPLINE_SURFACE(((1.,0.707106781186548,1.,0.707106781186548,1.,
0.707106781186548,1.,0.707106781186548,1.),(0.865945161566377,0.612315695879266,
0.865945161566377,0.612315695879266,0.865945161566377,0.612315695879266,
0.865945161566377,0.612315695879266,0.865945161566377),(1.,0.707106781186548,
1.,0.707106781186548,1.,0.707106781186548,1.,0.707106781186548,1.),(0.865945161566376,
0.612315695879265,0.865945161566376,0.612315695879265,0.865945161566376,
0.612315695879265,0.865945161566376,0.612315695879265,0.865945161566376),
(1.,0.707106781186548,1.,0.707106781186548,1.,0.707106781186548,1.,0.707106781186548,
1.),(0.865945161566376,0.612315695879265,0.865945161566376,0.612315695879265,
0.865945161566376,0.612315695879265,0.865945161566376,0.612315695879265,
0.865945161566376),(1.,0.707106781186548,1.,0.707106781186548,1.,0.707106781186548,
1.,0.707106781186548,1.)))
REPRESENTATION_ITEM('')
SURFACE()
);
#52=(
BOUNDED_SURFACE()
B_SPLINE_SURFACE(2,2,((#1611,#1612,#1613,#1614,#1615,#1616,#1617,#1618,
#1619),(#1620,#1621,#1622,#1623,#1624,#1625,#1626,#1627,#1628),(#1629,#1630,
#1631,#1632,#1633,#1634,#1635,#1636,#1637),(#1638,#1639,#1640,#1641,#1642,
#1643,#1644,#1645,#1646),(#1647,#1648,#1649,#1650,#1651,#1652,#1653,#1654,
#1655),(#1656,#1657,#1658,#1659,#1660,#1661,#1662,#1663,#1664),(#1665,#1666,
#1667,#1668,#1669,#1670,#1671,#1672,#1673)),.UNSPECIFIED.,.F.,.T.,.F.)
B_SPLINE_SURFACE_WITH_KNOTS((3,2,2,3),(3,2,2,2,3),(-1.57122692490353,-0.523742308301176,
0.523742308301176,1.57122692490353),(0.,1.5707963267949,3.14159265358979,
4.71238898038469,6.28318530717959),.UNSPECIFIED.)
GEOMETRIC_REPRESENTATION_ITEM()
RATIONAL_B_SPLINE_SURFACE(((1.,0.707106781186548,1.,0.707106781186548,1.,
0.707106781186548,1.,0.707106781186548,1.),(0.865953628512476,0.612321682914269,
0.865953628512476,0.612321682914269,0.865953628512476,0.612321682914269,
0.865953628512476,0.612321682914269,0.865953628512476),(1.,0.707106781186548,
1.,0.707106781186548,1.,0.707106781186548,1.,0.707106781186548,1.),(0.865953628512475,
0.612321682914268,0.865953628512475,0.612321682914268,0.865953628512475,
0.612321682914268,0.865953628512475,0.612321682914268,0.865953628512475),
(1.,0.707106781186548,1.,0.707106781186548,1.,0.707106781186548,1.,0.707106781186548,
1.),(0.865953628512473,0.612321682914266,0.865953628512473,0.612321682914266,
0.865953628512473,0.612321682914266,0.865953628512473,0.612321682914266,
0.865953628512473),(1.,0.707106781186548,1.,0.707106781186548,1.,0.707106781186548,
1.,0.707106781186548,1.)))
REPRESENTATION_ITEM('')
SURFACE()
);
#53=ELLIPSE('',#952,38.1027034308087,21.5);
#54=ELLIPSE('',#953,35.4443752844732,20.);
#55=ELLIPSE('',#954,38.1027034308087,21.5);
#56=ELLIPSE('',#955,38.1027034308087,21.5);
#57=ELLIPSE('',#956,38.1027034308087,21.5);
#58=ELLIPSE('',#957,38.1027034308087,21.5);
#59=ELLIPSE('',#958,38.1027034308087,21.5);
#60=ELLIPSE('',#959,38.1027034308087,21.5);
#61=ELLIPSE('',#960,38.1027034308087,21.5);
#62=ELLIPSE('',#961,38.1027034308087,21.5);
#63=ELLIPSE('',#962,38.1027034308087,21.5);
#64=ELLIPSE('',#967,35.4443752844732,20.);
#65=FACE_OUTER_BOUND('',#118,.T.);
#66=FACE_OUTER_BOUND('',#119,.T.);
#67=FACE_OUTER_BOUND('',#120,.T.);
#68=FACE_OUTER_BOUND('',#121,.T.);
#69=FACE_OUTER_BOUND('',#124,.T.);
#70=FACE_OUTER_BOUND('',#125,.T.);
#71=FACE_OUTER_BOUND('',#126,.T.);
#72=FACE_OUTER_BOUND('',#127,.T.);
#73=FACE_OUTER_BOUND('',#128,.T.);
#74=FACE_OUTER_BOUND('',#129,.T.);
#75=FACE_OUTER_BOUND('',#130,.T.);
#76=FACE_OUTER_BOUND('',#131,.T.);
#77=FACE_OUTER_BOUND('',#132,.T.);
#78=FACE_OUTER_BOUND('',#133,.T.);
#79=FACE_OUTER_BOUND('',#135,.T.);
#80=FACE_OUTER_BOUND('',#136,.T.);
#81=FACE_OUTER_BOUND('',#137,.T.);
#82=FACE_OUTER_BOUND('',#138,.T.);
#83=FACE_OUTER_BOUND('',#139,.T.);
#84=FACE_OUTER_BOUND('',#140,.T.);
#85=FACE_OUTER_BOUND('',#141,.T.);
#86=FACE_OUTER_BOUND('',#142,.T.);
#87=FACE_OUTER_BOUND('',#143,.T.);
#88=FACE_OUTER_BOUND('',#144,.T.);
#89=FACE_OUTER_BOUND('',#145,.T.);
#90=FACE_OUTER_BOUND('',#146,.T.);
#91=FACE_OUTER_BOUND('',#147,.T.);
#92=FACE_OUTER_BOUND('',#148,.T.);
#93=FACE_OUTER_BOUND('',#149,.T.);
#94=FACE_OUTER_BOUND('',#150,.T.);
#95=FACE_OUTER_BOUND('',#151,.T.);
#96=FACE_OUTER_BOUND('',#152,.T.);
#97=FACE_OUTER_BOUND('',#153,.T.);
#98=FACE_OUTER_BOUND('',#154,.T.);
#99=FACE_OUTER_BOUND('',#155,.T.);
#100=FACE_OUTER_BOUND('',#156,.T.);
#101=FACE_OUTER_BOUND('',#157,.T.);
#102=FACE_OUTER_BOUND('',#158,.T.);
#103=FACE_OUTER_BOUND('',#159,.T.);
#104=FACE_OUTER_BOUND('',#160,.T.);
#105=FACE_OUTER_BOUND('',#162,.T.);
#106=FACE_OUTER_BOUND('',#163,.T.);
#107=FACE_OUTER_BOUND('',#164,.T.);
#108=FACE_OUTER_BOUND('',#165,.T.);
#109=FACE_OUTER_BOUND('',#166,.T.);
#110=FACE_OUTER_BOUND('',#167,.T.);
#111=FACE_OUTER_BOUND('',#168,.T.);
#112=FACE_OUTER_BOUND('',#169,.T.);
#113=FACE_OUTER_BOUND('',#170,.T.);
#114=FACE_OUTER_BOUND('',#171,.T.);
#115=FACE_OUTER_BOUND('',#172,.T.);
#116=FACE_OUTER_BOUND('',#174,.T.);
#117=FACE_OUTER_BOUND('',#175,.T.);
#118=EDGE_LOOP('',(#582,#583,#584,#585));
#119=EDGE_LOOP('',(#586,#587,#588,#589));
#120=EDGE_LOOP('',(#590,#591,#592,#593));
#121=EDGE_LOOP('',(#594,#595,#596,#597));
#122=EDGE_LOOP('',(#598,#599,#600,#601,#602,#603,#604,#605,#606,#607));
#123=EDGE_LOOP('',(#608,#609,#610,#611,#612,#613,#614,#615,#616,#617));
#124=EDGE_LOOP('',(#618,#619,#620,#621));
#125=EDGE_LOOP('',(#622,#623,#624,#625));
#126=EDGE_LOOP('',(#626,#627,#628,#629));
#127=EDGE_LOOP('',(#630,#631,#632,#633));
#128=EDGE_LOOP('',(#634,#635,#636,#637));
#129=EDGE_LOOP('',(#638,#639,#640,#641));
#130=EDGE_LOOP('',(#642,#643,#644,#645));
#131=EDGE_LOOP('',(#646,#647,#648,#649));
#132=EDGE_LOOP('',(#650,#651,#652,#653));
#133=EDGE_LOOP('',(#654,#655,#656,#657));
#134=EDGE_LOOP('',(#658,#659,#660,#661));
#135=EDGE_LOOP('',(#662,#663,#664,#665,#666,#667,#668,#669,#670,#671));
#136=EDGE_LOOP('',(#672,#673,#674,#675));
#137=EDGE_LOOP('',(#676,#677,#678,#679,#680));
#138=EDGE_LOOP('',(#681,#682,#683,#684,#685,#686,#687,#688,#689,#690));
#139=EDGE_LOOP('',(#691,#692,#693,#694));
#140=EDGE_LOOP('',(#695,#696,#697,#698,#699));
#141=EDGE_LOOP('',(#700,#701,#702,#703));
#142=EDGE_LOOP('',(#704,#705,#706,#707,#708));
#143=EDGE_LOOP('',(#709,#710,#711,#712));
#144=EDGE_LOOP('',(#713,#714,#715,#716));
#145=EDGE_LOOP('',(#717,#718,#719,#720));
#146=EDGE_LOOP('',(#721,#722,#723,#724));
#147=EDGE_LOOP('',(#725,#726,#727,#728));
#148=EDGE_LOOP('',(#729,#730,#731,#732));
#149=EDGE_LOOP('',(#733,#734,#735,#736));
#150=EDGE_LOOP('',(#737,#738,#739,#740));
#151=EDGE_LOOP('',(#741,#742,#743,#744));
#152=EDGE_LOOP('',(#745,#746,#747,#748));
#153=EDGE_LOOP('',(#749,#750,#751,#752,#753));
#154=EDGE_LOOP('',(#754,#755,#756,#757));
#155=EDGE_LOOP('',(#758,#759,#760,#761));
#156=EDGE_LOOP('',(#762,#763,#764,#765));
#157=EDGE_LOOP('',(#766,#767,#768,#769));
#158=EDGE_LOOP('',(#770,#771,#772,#773));
#159=EDGE_LOOP('',(#774,#775,#776,#777));
#160=EDGE_LOOP('',(#778,#779,#780,#781));
#161=EDGE_LOOP('',(#782,#783,#784,#785));
#162=EDGE_LOOP('',(#786,#787,#788,#789));
#163=EDGE_LOOP('',(#790,#791,#792,#793));
#164=EDGE_LOOP('',(#794,#795,#796,#797));
#165=EDGE_LOOP('',(#798,#799,#800,#801));
#166=EDGE_LOOP('',(#802,#803,#804,#805));
#167=EDGE_LOOP('',(#806,#807,#808,#809));
#168=EDGE_LOOP('',(#810,#811,#812,#813));
#169=EDGE_LOOP('',(#814,#815,#816,#817));
#170=EDGE_LOOP('',(#818,#819,#820));
#171=EDGE_LOOP('',(#821,#822,#823,#824));
#172=EDGE_LOOP('',(#825,#826));
#173=EDGE_LOOP('',(#827));
#174=EDGE_LOOP('',(#828,#829,#830,#831));
#175=EDGE_LOOP('',(#832,#833,#834,#835));
#176=LINE('',#1269,#274);
#177=LINE('',#1271,#275);
#178=LINE('',#1273,#276);
#179=LINE('',#1274,#277);
#180=LINE('',#1278,#278);
#181=LINE('',#1280,#279);
#182=LINE('',#1282,#280);
#183=LINE('',#1283,#281);
#184=LINE('',#1288,#282);
#185=LINE('',#1298,#283);
#186=LINE('',#1303,#284);
#187=LINE('',#1315,#285);
#188=LINE('',#1327,#286);
#189=LINE('',#1330,#287);
#190=LINE('',#1335,#288);
#191=LINE('',#1347,#289);
#192=LINE('',#1359,#290);
#193=LINE('',#1362,#291);
#194=LINE('',#1365,#292);
#195=LINE('',#1367,#293);
#196=LINE('',#1368,#294);
#197=LINE('',#1371,#295);
#198=LINE('',#1372,#296);
#199=LINE('',#1376,#297);
#200=LINE('',#1378,#298);
#201=LINE('',#1380,#299);
#202=LINE('',#1381,#300);
#203=LINE('',#1385,#301);
#204=LINE('',#1387,#302);
#205=LINE('',#1390,#303);
#206=LINE('',#1392,#304);
#207=LINE('',#1393,#305);
#208=LINE('',#1396,#306);
#209=LINE('',#1397,#307);
#210=LINE('',#1408,#308);
#211=LINE('',#1409,#309);
#212=LINE('',#1412,#310);
#213=LINE('',#1413,#311);
#214=LINE('',#1415,#312);
#215=LINE('',#1416,#313);
#216=LINE('',#1419,#314);
#217=LINE('',#1421,#315);
#218=LINE('',#1423,#316);
#219=LINE('',#1425,#317);
#220=LINE('',#1427,#318);
#221=LINE('',#1429,#319);
#222=LINE('',#1431,#320);
#223=LINE('',#1437,#321);
#224=LINE('',#1438,#322);
#225=LINE('',#1441,#323);
#226=LINE('',#1443,#324);
#227=LINE('',#1444,#325);
#228=LINE('',#1447,#326);
#229=LINE('',#1451,#327);
#230=LINE('',#1453,#328);
#231=LINE('',#1455,#329);
#232=LINE('',#1457,#330);
#233=LINE('',#1459,#331);
#234=LINE('',#1460,#332);
#235=LINE('',#1462,#333);
#236=LINE('',#1463,#334);
#237=LINE('',#1466,#335);
#238=LINE('',#1467,#336);
#239=LINE('',#1469,#337);
#240=LINE('',#1472,#338);
#241=LINE('',#1473,#339);
#242=LINE('',#1476,#340);
#243=LINE('',#1477,#341);
#244=LINE('',#1480,#342);
#245=LINE('',#1481,#343);
#246=LINE('',#1484,#344);
#247=LINE('',#1485,#345);
#248=LINE('',#1488,#346);
#249=LINE('',#1489,#347);
#250=LINE('',#1491,#348);
#251=LINE('',#1494,#349);
#252=LINE('',#1495,#350);
#253=LINE('',#1498,#351);
#254=LINE('',#1499,#352);
#255=LINE('',#1502,#353);
#256=LINE('',#1503,#354);
#257=LINE('',#1506,#355);
#258=LINE('',#1507,#356);
#259=LINE('',#1510,#357);
#260=LINE('',#1511,#358);
#261=LINE('',#1513,#359);
#262=LINE('',#1515,#360);
#263=LINE('',#1519,#361);
#264=LINE('',#1520,#362);
#265=LINE('',#1522,#363);
#266=LINE('',#1524,#364);
#267=LINE('',#1526,#365);
#268=LINE('',#1529,#366);
#269=LINE('',#1531,#367);
#270=LINE('',#1533,#368);
#271=LINE('',#1534,#369);
#272=LINE('',#1538,#370);
#273=LINE('',#1539,#371);
#274=VECTOR('',#1025,10.);
#275=VECTOR('',#1026,17.6979);
#276=VECTOR('',#1027,10.);
#277=VECTOR('',#1028,17.6979);
#278=VECTOR('',#1031,17.6979);
#279=VECTOR('',#1032,10.0291579337141);
#280=VECTOR('',#1033,17.6979);
#281=VECTOR('',#1034,10.0291579337141);
#282=VECTOR('',#1039,17.6979);
#283=VECTOR('',#1044,10.0291579337141);
#284=VECTOR('',#1047,10.0291579337141);
#285=VECTOR('',#1050,10.0291579337141);
#286=VECTOR('',#1053,10.0291579337141);
#287=VECTOR('',#1056,10.0291579337141);
#288=VECTOR('',#1059,10.0291579337141);
#289=VECTOR('',#1062,10.0291579337141);
#290=VECTOR('',#1065,10.0291579337141);
#291=VECTOR('',#1068,10.0291579337141);
#292=VECTOR('',#1071,10.);
#293=VECTOR('',#1072,10.);
#294=VECTOR('',#1073,10.);
#295=VECTOR('',#1076,10.);
#296=VECTOR('',#1077,17.6979);
#297=VECTOR('',#1080,10.);
#298=VECTOR('',#1081,17.6979);
#299=VECTOR('',#1082,10.);
#300=VECTOR('',#1083,17.6979);
#301=VECTOR('',#1088,17.6979);
#302=VECTOR('',#1091,10.0291579337141);
#303=VECTOR('',#1094,10.);
#304=VECTOR('',#1095,10.);
#305=VECTOR('',#1096,10.);
#306=VECTOR('',#1099,10.);
#307=VECTOR('',#1100,17.6979);
#308=VECTOR('',#1105,17.6979);
#309=VECTOR('',#1106,17.6979);
#310=VECTOR('',#1109,10.);
#311=VECTOR('',#1110,17.6979);
#312=VECTOR('',#1111,10.);
#313=VECTOR('',#1112,17.6979);
#314=VECTOR('',#1115,10.);
#315=VECTOR('',#1116,10.);
#316=VECTOR('',#1117,10.);
#317=VECTOR('',#1118,10.);
#318=VECTOR('',#1119,10.);
#319=VECTOR('',#1120,10.);
#320=VECTOR('',#1121,10.);
#321=VECTOR('',#1128,17.6979);
#322=VECTOR('',#1129,17.6979);
#323=VECTOR('',#1132,10.);
#324=VECTOR('',#1133,14.3738593357873);
#325=VECTOR('',#1134,17.6979);
#326=VECTOR('',#1137,10.);
#327=VECTOR('',#1140,10.);
#328=VECTOR('',#1141,10.);
#329=VECTOR('',#1142,10.);
#330=VECTOR('',#1143,10.);
#331=VECTOR('',#1144,10.);
#332=VECTOR('',#1145,10.);
#333=VECTOR('',#1148,17.6979);
#334=VECTOR('',#1149,17.6979);
#335=VECTOR('',#1152,17.6979);
#336=VECTOR('',#1153,14.3738593357873);
#337=VECTOR('',#1156,17.6979);
#338=VECTOR('',#1159,14.3738593357873);
#339=VECTOR('',#1160,17.6979);
#340=VECTOR('',#1163,10.);
#341=VECTOR('',#1164,13.0794452533992);
#342=VECTOR('',#1167,10.);
#343=VECTOR('',#1168,13.0794452533992);
#344=VECTOR('',#1171,10.);
#345=VECTOR('',#1172,13.0794452533992);
#346=VECTOR('',#1175,10.);
#347=VECTOR('',#1176,13.0794452533992);
#348=VECTOR('',#1179,10.);
#349=VECTOR('',#1182,10.);
#350=VECTOR('',#1183,13.0794452533992);
#351=VECTOR('',#1186,10.);
#352=VECTOR('',#1187,13.0794452533992);
#353=VECTOR('',#1190,10.);
#354=VECTOR('',#1191,13.0794452533992);
#355=VECTOR('',#1194,10.);
#356=VECTOR('',#1195,13.0794452533992);
#357=VECTOR('',#1198,14.3738593357873);
#358=VECTOR('',#1199,10.);
#359=VECTOR('',#1202,17.6979);
#360=VECTOR('',#1205,10.);
#361=VECTOR('',#1210,10.);
#362=VECTOR('',#1211,10.);
#363=VECTOR('',#1214,17.6979);
#364=VECTOR('',#1217,17.6979);
#365=VECTOR('',#1220,17.6979);
#366=VECTOR('',#1225,17.6979);
#367=VECTOR('',#1228,17.6979);
#368=VECTOR('',#1231,17.6979);
#369=VECTOR('',#1232,17.6979);
#370=VECTOR('',#1239,17.6979);
#371=VECTOR('',#1240,17.6979);
#372=VERTEX_POINT('',#1267);
#373=VERTEX_POINT('',#1268);
#374=VERTEX_POINT('',#1270);
#375=VERTEX_POINT('',#1272);
#376=VERTEX_POINT('',#1276);
#377=VERTEX_POINT('',#1277);
#378=VERTEX_POINT('',#1279);
#379=VERTEX_POINT('',#1281);
#380=VERTEX_POINT('',#1285);
#381=VERTEX_POINT('',#1287);
#382=VERTEX_POINT('',#1296);
#383=VERTEX_POINT('',#1299);
#384=VERTEX_POINT('',#1300);
#385=VERTEX_POINT('',#1302);
#386=VERTEX_POINT('',#1304);
#387=VERTEX_POINT('',#1306);
#388=VERTEX_POINT('',#1314);
#389=VERTEX_POINT('',#1316);
#390=VERTEX_POINT('',#1324);
#391=VERTEX_POINT('',#1326);
#392=VERTEX_POINT('',#1328);
#393=VERTEX_POINT('',#1331);
#394=VERTEX_POINT('',#1332);
#395=VERTEX_POINT('',#1334);
#396=VERTEX_POINT('',#1336);
#397=VERTEX_POINT('',#1338);
#398=VERTEX_POINT('',#1346);
#399=VERTEX_POINT('',#1348);
#400=VERTEX_POINT('',#1356);
#401=VERTEX_POINT('',#1358);
#402=VERTEX_POINT('',#1360);
#403=VERTEX_POINT('',#1364);
#404=VERTEX_POINT('',#1366);
#405=VERTEX_POINT('',#1370);
#406=VERTEX_POINT('',#1374);
#407=VERTEX_POINT('',#1375);
#408=VERTEX_POINT('',#1377);
#409=VERTEX_POINT('',#1379);
#410=VERTEX_POINT('',#1383);
#411=VERTEX_POINT('',#1389);
#412=VERTEX_POINT('',#1391);
#413=VERTEX_POINT('',#1395);
#414=VERTEX_POINT('',#1405);
#415=VERTEX_POINT('',#1406);
#416=VERTEX_POINT('',#1411);
#417=VERTEX_POINT('',#1414);
#418=VERTEX_POINT('',#1418);
#419=VERTEX_POINT('',#1420);
#420=VERTEX_POINT('',#1422);
#421=VERTEX_POINT('',#1424);
#422=VERTEX_POINT('',#1426);
#423=VERTEX_POINT('',#1428);
#424=VERTEX_POINT('',#1430);
#425=VERTEX_POINT('',#1434);
#426=VERTEX_POINT('',#1435);
#427=VERTEX_POINT('',#1440);
#428=VERTEX_POINT('',#1442);
#429=VERTEX_POINT('',#1446);
#430=VERTEX_POINT('',#1448);
#431=VERTEX_POINT('',#1450);
#432=VERTEX_POINT('',#1452);
#433=VERTEX_POINT('',#1454);
#434=VERTEX_POINT('',#1456);
#435=VERTEX_POINT('',#1458);
#436=VERTEX_POINT('',#1465);
#437=VERTEX_POINT('',#1471);
#438=VERTEX_POINT('',#1475);
#439=VERTEX_POINT('',#1479);
#440=VERTEX_POINT('',#1483);
#441=VERTEX_POINT('',#1487);
#442=VERTEX_POINT('',#1493);
#443=VERTEX_POINT('',#1497);
#444=VERTEX_POINT('',#1501);
#445=VERTEX_POINT('',#1505);
#446=VERTEX_POINT('',#1509);
#447=VERTEX_POINT('',#1518);
#448=VERTEX_POINT('',#1605);
#449=VERTEX_POINT('',#1606);
#450=VERTEX_POINT('',#1674);
#451=VERTEX_POINT('',#1675);
#452=VERTEX_POINT('',#1678);
#453=VERTEX_POINT('',#1686);
#454=VERTEX_POINT('',#1690);
#455=EDGE_CURVE('',#372,#373,#176,.T.);
#456=EDGE_CURVE('',#374,#372,#177,.T.);
#457=EDGE_CURVE('',#375,#374,#178,.T.);
#458=EDGE_CURVE('',#373,#375,#179,.T.);
#459=EDGE_CURVE('',#376,#377,#180,.T.);
#460=EDGE_CURVE('',#378,#376,#181,.T.);
#461=EDGE_CURVE('',#379,#378,#182,.T.);
#462=EDGE_CURVE('',#377,#379,#183,.T.);
#463=EDGE_CURVE('',#380,#378,#53,.T.);
#464=EDGE_CURVE('',#380,#381,#184,.T.);
#465=EDGE_CURVE('',#379,#381,#54,.T.);
#466=EDGE_CURVE('',#376,#382,#55,.T.);
#467=EDGE_CURVE('',#382,#380,#185,.T.);
#468=EDGE_CURVE('',#383,#384,#56,.T.);
#469=EDGE_CURVE('',#384,#385,#186,.T.);
#470=EDGE_CURVE('',#385,#386,#57,.T.);
#471=EDGE_CURVE('',#387,#386,#45,.F.);
#472=EDGE_CURVE('',#387,#388,#187,.T.);
#473=EDGE_CURVE('',#389,#388,#46,.F.);
#474=EDGE_CURVE('',#389,#390,#58,.T.);
#475=EDGE_CURVE('',#390,#391,#188,.T.);
#476=EDGE_CURVE('',#391,#392,#59,.T.);
#477=EDGE_CURVE('',#392,#383,#189,.T.);
#478=EDGE_CURVE('',#393,#394,#60,.T.);
#479=EDGE_CURVE('',#394,#395,#190,.T.);
#480=EDGE_CURVE('',#395,#396,#61,.T.);
#481=EDGE_CURVE('',#397,#396,#47,.F.);
#482=EDGE_CURVE('',#397,#398,#191,.T.);
#483=EDGE_CURVE('',#399,#398,#48,.F.);
#484=EDGE_CURVE('',#399,#400,#62,.T.);
#485=EDGE_CURVE('',#400,#401,#192,.T.);
#486=EDGE_CURVE('',#401,#402,#63,.T.);
#487=EDGE_CURVE('',#402,#393,#193,.T.);
#488=EDGE_CURVE('',#403,#374,#194,.T.);
#489=EDGE_CURVE('',#404,#403,#195,.T.);
#490=EDGE_CURVE('',#404,#375,#196,.T.);
#491=EDGE_CURVE('',#405,#372,#197,.T.);
#492=EDGE_CURVE('',#403,#405,#198,.T.);
#493=EDGE_CURVE('',#406,#407,#199,.T.);
#494=EDGE_CURVE('',#408,#406,#200,.T.);
#495=EDGE_CURVE('',#409,#408,#201,.T.);
#496=EDGE_CURVE('',#407,#409,#202,.T.);
#497=EDGE_CURVE('',#410,#377,#64,.T.);
#498=EDGE_CURVE('',#382,#410,#203,.T.);
#499=EDGE_CURVE('',#381,#410,#204,.T.);
#500=EDGE_CURVE('',#411,#408,#205,.T.);
#501=EDGE_CURVE('',#412,#411,#206,.T.);
#502=EDGE_CURVE('',#412,#409,#207,.T.);
#503=EDGE_CURVE('',#413,#406,#208,.T.);
#504=EDGE_CURVE('',#411,#413,#209,.T.);
#505=EDGE_CURVE('',#414,#415,#25,.T.);
#506=EDGE_CURVE('',#415,#397,#210,.T.);
#507=EDGE_CURVE('',#396,#414,#211,.T.);
#508=EDGE_CURVE('',#415,#416,#212,.T.);
#509=EDGE_CURVE('',#398,#416,#213,.T.);
#510=EDGE_CURVE('',#413,#417,#214,.T.);
#511=EDGE_CURVE('',#417,#412,#215,.T.);
#512=EDGE_CURVE('',#418,#414,#216,.T.);
#513=EDGE_CURVE('',#419,#418,#217,.T.);
#514=EDGE_CURVE('',#420,#419,#218,.T.);
#515=EDGE_CURVE('',#421,#420,#219,.T.);
#516=EDGE_CURVE('',#422,#421,#220,.T.);
#517=EDGE_CURVE('',#423,#422,#221,.T.);
#518=EDGE_CURVE('',#424,#423,#222,.T.);
#519=EDGE_CURVE('',#416,#424,#26,.T.);
#520=EDGE_CURVE('',#425,#426,#27,.T.);
#521=EDGE_CURVE('',#426,#389,#223,.T.);
#522=EDGE_CURVE('',#388,#425,#224,.T.);
#523=EDGE_CURVE('',#426,#427,#225,.T.);
#524=EDGE_CURVE('',#428,#427,#226,.T.);
#525=EDGE_CURVE('',#428,#390,#227,.T.);
#526=EDGE_CURVE('',#429,#425,#228,.T.);
#527=EDGE_CURVE('',#430,#429,#28,.T.);
#528=EDGE_CURVE('',#431,#430,#229,.T.);
#529=EDGE_CURVE('',#432,#431,#230,.T.);
#530=EDGE_CURVE('',#433,#432,#231,.T.);
#531=EDGE_CURVE('',#434,#433,#232,.T.);
#532=EDGE_CURVE('',#435,#434,#233,.T.);
#533=EDGE_CURVE('',#427,#435,#234,.T.);
#534=EDGE_CURVE('',#429,#387,#235,.T.);
#535=EDGE_CURVE('',#386,#430,#236,.T.);
#536=EDGE_CURVE('',#436,#385,#237,.T.);
#537=EDGE_CURVE('',#431,#436,#238,.T.);
#538=EDGE_CURVE('',#424,#399,#239,.T.);
#539=EDGE_CURVE('',#437,#423,#240,.T.);
#540=EDGE_CURVE('',#437,#400,#241,.T.);
#541=EDGE_CURVE('',#438,#428,#242,.T.);
#542=EDGE_CURVE('',#435,#438,#243,.T.);
#543=EDGE_CURVE('',#439,#438,#244,.T.);
#544=EDGE_CURVE('',#434,#439,#245,.T.);
#545=EDGE_CURVE('',#440,#439,#246,.T.);
#546=EDGE_CURVE('',#433,#440,#247,.T.);
#547=EDGE_CURVE('',#441,#440,#248,.T.);
#548=EDGE_CURVE('',#432,#441,#249,.T.);
#549=EDGE_CURVE('',#436,#441,#250,.T.);
#550=EDGE_CURVE('',#442,#437,#251,.T.);
#551=EDGE_CURVE('',#422,#442,#252,.T.);
#552=EDGE_CURVE('',#443,#442,#253,.T.);
#553=EDGE_CURVE('',#421,#443,#254,.T.);
#554=EDGE_CURVE('',#444,#443,#255,.T.);
#555=EDGE_CURVE('',#420,#444,#256,.T.);
#556=EDGE_CURVE('',#445,#444,#257,.T.);
#557=EDGE_CURVE('',#419,#445,#258,.T.);
#558=EDGE_CURVE('',#418,#446,#259,.T.);
#559=EDGE_CURVE('',#446,#445,#260,.T.);
#560=EDGE_CURVE('',#446,#395,#261,.T.);
#561=EDGE_CURVE('',#417,#407,#262,.T.);
#562=EDGE_CURVE('',#447,#373,#263,.T.);
#563=EDGE_CURVE('',#405,#447,#264,.T.);
#564=EDGE_CURVE('',#447,#404,#265,.T.);
#565=EDGE_CURVE('',#442,#401,#266,.T.);
#566=EDGE_CURVE('',#443,#402,#267,.T.);
#567=EDGE_CURVE('',#438,#391,#268,.T.);
#568=EDGE_CURVE('',#439,#392,#269,.T.);
#569=EDGE_CURVE('',#445,#394,#270,.T.);
#570=EDGE_CURVE('',#444,#393,#271,.T.);
#571=EDGE_CURVE('',#441,#384,#272,.T.);
#572=EDGE_CURVE('',#440,#383,#273,.T.);
#573=EDGE_CURVE('',#448,#449,#15,.T.);
#574=EDGE_CURVE('',#449,#449,#29,.T.);
#575=EDGE_CURVE('',#450,#451,#30,.T.);
#576=EDGE_CURVE('',#451,#450,#31,.T.);
#577=EDGE_CURVE('',#451,#452,#16,.T.);
#578=EDGE_CURVE('',#453,#453,#32,.T.);
#579=EDGE_CURVE('',#453,#453,#33,.T.);
#580=EDGE_CURVE('',#454,#454,#34,.T.);
#581=EDGE_CURVE('',#454,#454,#35,.T.);
#582=ORIENTED_EDGE('',*,*,#455,.F.);
#583=ORIENTED_EDGE('',*,*,#456,.F.);
#584=ORIENTED_EDGE('',*,*,#457,.F.);
#585=ORIENTED_EDGE('',*,*,#458,.F.);
#586=ORIENTED_EDGE('',*,*,#459,.F.);
#587=ORIENTED_EDGE('',*,*,#460,.F.);
#588=ORIENTED_EDGE('',*,*,#461,.F.);
#589=ORIENTED_EDGE('',*,*,#462,.F.);
#590=ORIENTED_EDGE('',*,*,#461,.T.);
#591=ORIENTED_EDGE('',*,*,#463,.F.);
#592=ORIENTED_EDGE('',*,*,#464,.T.);
#593=ORIENTED_EDGE('',*,*,#465,.F.);
#594=ORIENTED_EDGE('',*,*,#460,.T.);
#595=ORIENTED_EDGE('',*,*,#466,.T.);
#596=ORIENTED_EDGE('',*,*,#467,.T.);
#597=ORIENTED_EDGE('',*,*,#463,.T.);
#598=ORIENTED_EDGE('',*,*,#468,.T.);
#599=ORIENTED_EDGE('',*,*,#469,.T.);
#600=ORIENTED_EDGE('',*,*,#470,.T.);
#601=ORIENTED_EDGE('',*,*,#471,.F.);
#602=ORIENTED_EDGE('',*,*,#472,.T.);
#603=ORIENTED_EDGE('',*,*,#473,.F.);
#604=ORIENTED_EDGE('',*,*,#474,.T.);
#605=ORIENTED_EDGE('',*,*,#475,.T.);
#606=ORIENTED_EDGE('',*,*,#476,.T.);
#607=ORIENTED_EDGE('',*,*,#477,.T.);
#608=ORIENTED_EDGE('',*,*,#478,.T.);
#609=ORIENTED_EDGE('',*,*,#479,.T.);
#610=ORIENTED_EDGE('',*,*,#480,.T.);
#611=ORIENTED_EDGE('',*,*,#481,.F.);
#612=ORIENTED_EDGE('',*,*,#482,.T.);
#613=ORIENTED_EDGE('',*,*,#483,.F.);
#614=ORIENTED_EDGE('',*,*,#484,.T.);
#615=ORIENTED_EDGE('',*,*,#485,.T.);
#616=ORIENTED_EDGE('',*,*,#486,.T.);
#617=ORIENTED_EDGE('',*,*,#487,.T.);
#618=ORIENTED_EDGE('',*,*,#457,.T.);
#619=ORIENTED_EDGE('',*,*,#488,.F.);
#620=ORIENTED_EDGE('',*,*,#489,.F.);
#621=ORIENTED_EDGE('',*,*,#490,.T.);
#622=ORIENTED_EDGE('',*,*,#456,.T.);
#623=ORIENTED_EDGE('',*,*,#491,.F.);
#624=ORIENTED_EDGE('',*,*,#492,.F.);
#625=ORIENTED_EDGE('',*,*,#488,.T.);
#626=ORIENTED_EDGE('',*,*,#493,.F.);
#627=ORIENTED_EDGE('',*,*,#494,.F.);
#628=ORIENTED_EDGE('',*,*,#495,.F.);
#629=ORIENTED_EDGE('',*,*,#496,.F.);
#630=ORIENTED_EDGE('',*,*,#459,.T.);
#631=ORIENTED_EDGE('',*,*,#497,.F.);
#632=ORIENTED_EDGE('',*,*,#498,.F.);
#633=ORIENTED_EDGE('',*,*,#466,.F.);
#634=ORIENTED_EDGE('',*,*,#467,.F.);
#635=ORIENTED_EDGE('',*,*,#498,.T.);
#636=ORIENTED_EDGE('',*,*,#499,.F.);
#637=ORIENTED_EDGE('',*,*,#464,.F.);
#638=ORIENTED_EDGE('',*,*,#495,.T.);
#639=ORIENTED_EDGE('',*,*,#500,.F.);
#640=ORIENTED_EDGE('',*,*,#501,.F.);
#641=ORIENTED_EDGE('',*,*,#502,.T.);
#642=ORIENTED_EDGE('',*,*,#494,.T.);
#643=ORIENTED_EDGE('',*,*,#503,.F.);
#644=ORIENTED_EDGE('',*,*,#504,.F.);
#645=ORIENTED_EDGE('',*,*,#500,.T.);
#646=ORIENTED_EDGE('',*,*,#462,.T.);
#647=ORIENTED_EDGE('',*,*,#465,.T.);
#648=ORIENTED_EDGE('',*,*,#499,.T.);
#649=ORIENTED_EDGE('',*,*,#497,.T.);
#650=ORIENTED_EDGE('',*,*,#505,.T.);
#651=ORIENTED_EDGE('',*,*,#506,.T.);
#652=ORIENTED_EDGE('',*,*,#481,.T.);
#653=ORIENTED_EDGE('',*,*,#507,.T.);
#654=ORIENTED_EDGE('',*,*,#506,.F.);
#655=ORIENTED_EDGE('',*,*,#508,.T.);
#656=ORIENTED_EDGE('',*,*,#509,.F.);
#657=ORIENTED_EDGE('',*,*,#482,.F.);
#658=ORIENTED_EDGE('',*,*,#510,.T.);
#659=ORIENTED_EDGE('',*,*,#511,.T.);
#660=ORIENTED_EDGE('',*,*,#501,.T.);
#661=ORIENTED_EDGE('',*,*,#504,.T.);
#662=ORIENTED_EDGE('',*,*,#505,.F.);
#663=ORIENTED_EDGE('',*,*,#512,.F.);
#664=ORIENTED_EDGE('',*,*,#513,.F.);
#665=ORIENTED_EDGE('',*,*,#514,.F.);
#666=ORIENTED_EDGE('',*,*,#515,.F.);
#667=ORIENTED_EDGE('',*,*,#516,.F.);
#668=ORIENTED_EDGE('',*,*,#517,.F.);
#669=ORIENTED_EDGE('',*,*,#518,.F.);
#670=ORIENTED_EDGE('',*,*,#519,.F.);
#671=ORIENTED_EDGE('',*,*,#508,.F.);
#672=ORIENTED_EDGE('',*,*,#520,.T.);
#673=ORIENTED_EDGE('',*,*,#521,.T.);
#674=ORIENTED_EDGE('',*,*,#473,.T.);
#675=ORIENTED_EDGE('',*,*,#522,.T.);
#676=ORIENTED_EDGE('',*,*,#521,.F.);
#677=ORIENTED_EDGE('',*,*,#523,.T.);
#678=ORIENTED_EDGE('',*,*,#524,.F.);
#679=ORIENTED_EDGE('',*,*,#525,.T.);
#680=ORIENTED_EDGE('',*,*,#474,.F.);
#681=ORIENTED_EDGE('',*,*,#520,.F.);
#682=ORIENTED_EDGE('',*,*,#526,.F.);
#683=ORIENTED_EDGE('',*,*,#527,.F.);
#684=ORIENTED_EDGE('',*,*,#528,.F.);
#685=ORIENTED_EDGE('',*,*,#529,.F.);
#686=ORIENTED_EDGE('',*,*,#530,.F.);
#687=ORIENTED_EDGE('',*,*,#531,.F.);
#688=ORIENTED_EDGE('',*,*,#532,.F.);
#689=ORIENTED_EDGE('',*,*,#533,.F.);
#690=ORIENTED_EDGE('',*,*,#523,.F.);
#691=ORIENTED_EDGE('',*,*,#527,.T.);
#692=ORIENTED_EDGE('',*,*,#534,.T.);
#693=ORIENTED_EDGE('',*,*,#471,.T.);
#694=ORIENTED_EDGE('',*,*,#535,.T.);
#695=ORIENTED_EDGE('',*,*,#535,.F.);
#696=ORIENTED_EDGE('',*,*,#470,.F.);
#697=ORIENTED_EDGE('',*,*,#536,.F.);
#698=ORIENTED_EDGE('',*,*,#537,.F.);
#699=ORIENTED_EDGE('',*,*,#528,.T.);
#700=ORIENTED_EDGE('',*,*,#519,.T.);
#701=ORIENTED_EDGE('',*,*,#538,.T.);
#702=ORIENTED_EDGE('',*,*,#483,.T.);
#703=ORIENTED_EDGE('',*,*,#509,.T.);
#704=ORIENTED_EDGE('',*,*,#538,.F.);
#705=ORIENTED_EDGE('',*,*,#518,.T.);
#706=ORIENTED_EDGE('',*,*,#539,.F.);
#707=ORIENTED_EDGE('',*,*,#540,.T.);
#708=ORIENTED_EDGE('',*,*,#484,.F.);
#709=ORIENTED_EDGE('',*,*,#541,.T.);
#710=ORIENTED_EDGE('',*,*,#524,.T.);
#711=ORIENTED_EDGE('',*,*,#533,.T.);
#712=ORIENTED_EDGE('',*,*,#542,.T.);
#713=ORIENTED_EDGE('',*,*,#543,.T.);
#714=ORIENTED_EDGE('',*,*,#542,.F.);
#715=ORIENTED_EDGE('',*,*,#532,.T.);
#716=ORIENTED_EDGE('',*,*,#544,.T.);
#717=ORIENTED_EDGE('',*,*,#545,.T.);
#718=ORIENTED_EDGE('',*,*,#544,.F.);
#719=ORIENTED_EDGE('',*,*,#531,.T.);
#720=ORIENTED_EDGE('',*,*,#546,.T.);
#721=ORIENTED_EDGE('',*,*,#547,.T.);
#722=ORIENTED_EDGE('',*,*,#546,.F.);
#723=ORIENTED_EDGE('',*,*,#530,.T.);
#724=ORIENTED_EDGE('',*,*,#548,.T.);
#725=ORIENTED_EDGE('',*,*,#529,.T.);
#726=ORIENTED_EDGE('',*,*,#537,.T.);
#727=ORIENTED_EDGE('',*,*,#549,.T.);
#728=ORIENTED_EDGE('',*,*,#548,.F.);
#729=ORIENTED_EDGE('',*,*,#550,.T.);
#730=ORIENTED_EDGE('',*,*,#539,.T.);
#731=ORIENTED_EDGE('',*,*,#517,.T.);
#732=ORIENTED_EDGE('',*,*,#551,.T.);
#733=ORIENTED_EDGE('',*,*,#552,.T.);
#734=ORIENTED_EDGE('',*,*,#551,.F.);
#735=ORIENTED_EDGE('',*,*,#516,.T.);
#736=ORIENTED_EDGE('',*,*,#553,.T.);
#737=ORIENTED_EDGE('',*,*,#554,.T.);
#738=ORIENTED_EDGE('',*,*,#553,.F.);
#739=ORIENTED_EDGE('',*,*,#515,.T.);
#740=ORIENTED_EDGE('',*,*,#555,.T.);
#741=ORIENTED_EDGE('',*,*,#556,.T.);
#742=ORIENTED_EDGE('',*,*,#555,.F.);
#743=ORIENTED_EDGE('',*,*,#514,.T.);
#744=ORIENTED_EDGE('',*,*,#557,.T.);
#745=ORIENTED_EDGE('',*,*,#513,.T.);
#746=ORIENTED_EDGE('',*,*,#558,.T.);
#747=ORIENTED_EDGE('',*,*,#559,.T.);
#748=ORIENTED_EDGE('',*,*,#557,.F.);
#749=ORIENTED_EDGE('',*,*,#507,.F.);
#750=ORIENTED_EDGE('',*,*,#480,.F.);
#751=ORIENTED_EDGE('',*,*,#560,.F.);
#752=ORIENTED_EDGE('',*,*,#558,.F.);
#753=ORIENTED_EDGE('',*,*,#512,.T.);
#754=ORIENTED_EDGE('',*,*,#493,.T.);
#755=ORIENTED_EDGE('',*,*,#561,.F.);
#756=ORIENTED_EDGE('',*,*,#510,.F.);
#757=ORIENTED_EDGE('',*,*,#503,.T.);
#758=ORIENTED_EDGE('',*,*,#496,.T.);
#759=ORIENTED_EDGE('',*,*,#502,.F.);
#760=ORIENTED_EDGE('',*,*,#511,.F.);
#761=ORIENTED_EDGE('',*,*,#561,.T.);
#762=ORIENTED_EDGE('',*,*,#455,.T.);
#763=ORIENTED_EDGE('',*,*,#562,.F.);
#764=ORIENTED_EDGE('',*,*,#563,.F.);
#765=ORIENTED_EDGE('',*,*,#491,.T.);
#766=ORIENTED_EDGE('',*,*,#458,.T.);
#767=ORIENTED_EDGE('',*,*,#490,.F.);
#768=ORIENTED_EDGE('',*,*,#564,.F.);
#769=ORIENTED_EDGE('',*,*,#562,.T.);
#770=ORIENTED_EDGE('',*,*,#550,.F.);
#771=ORIENTED_EDGE('',*,*,#565,.T.);
#772=ORIENTED_EDGE('',*,*,#485,.F.);
#773=ORIENTED_EDGE('',*,*,#540,.F.);
#774=ORIENTED_EDGE('',*,*,#552,.F.);
#775=ORIENTED_EDGE('',*,*,#566,.T.);
#776=ORIENTED_EDGE('',*,*,#486,.F.);
#777=ORIENTED_EDGE('',*,*,#565,.F.);
#778=ORIENTED_EDGE('',*,*,#522,.F.);
#779=ORIENTED_EDGE('',*,*,#472,.F.);
#780=ORIENTED_EDGE('',*,*,#534,.F.);
#781=ORIENTED_EDGE('',*,*,#526,.T.);
#782=ORIENTED_EDGE('',*,*,#563,.T.);
#783=ORIENTED_EDGE('',*,*,#564,.T.);
#784=ORIENTED_EDGE('',*,*,#489,.T.);
#785=ORIENTED_EDGE('',*,*,#492,.T.);
#786=ORIENTED_EDGE('',*,*,#541,.F.);
#787=ORIENTED_EDGE('',*,*,#567,.T.);
#788=ORIENTED_EDGE('',*,*,#475,.F.);
#789=ORIENTED_EDGE('',*,*,#525,.F.);
#790=ORIENTED_EDGE('',*,*,#543,.F.);
#791=ORIENTED_EDGE('',*,*,#568,.T.);
#792=ORIENTED_EDGE('',*,*,#476,.F.);
#793=ORIENTED_EDGE('',*,*,#567,.F.);
#794=ORIENTED_EDGE('',*,*,#556,.F.);
#795=ORIENTED_EDGE('',*,*,#569,.T.);
#796=ORIENTED_EDGE('',*,*,#478,.F.);
#797=ORIENTED_EDGE('',*,*,#570,.F.);
#798=ORIENTED_EDGE('',*,*,#554,.F.);
#799=ORIENTED_EDGE('',*,*,#570,.T.);
#800=ORIENTED_EDGE('',*,*,#487,.F.);
#801=ORIENTED_EDGE('',*,*,#566,.F.);
#802=ORIENTED_EDGE('',*,*,#559,.F.);
#803=ORIENTED_EDGE('',*,*,#560,.T.);
#804=ORIENTED_EDGE('',*,*,#479,.F.);
#805=ORIENTED_EDGE('',*,*,#569,.F.);
#806=ORIENTED_EDGE('',*,*,#547,.F.);
#807=ORIENTED_EDGE('',*,*,#571,.T.);
#808=ORIENTED_EDGE('',*,*,#468,.F.);
#809=ORIENTED_EDGE('',*,*,#572,.F.);
#810=ORIENTED_EDGE('',*,*,#545,.F.);
#811=ORIENTED_EDGE('',*,*,#572,.T.);
#812=ORIENTED_EDGE('',*,*,#477,.F.);
#813=ORIENTED_EDGE('',*,*,#568,.F.);
#814=ORIENTED_EDGE('',*,*,#549,.F.);
#815=ORIENTED_EDGE('',*,*,#536,.T.);
#816=ORIENTED_EDGE('',*,*,#469,.F.);
#817=ORIENTED_EDGE('',*,*,#571,.F.);
#818=ORIENTED_EDGE('',*,*,#573,.T.);
#819=ORIENTED_EDGE('',*,*,#574,.F.);
#820=ORIENTED_EDGE('',*,*,#573,.F.);
#821=ORIENTED_EDGE('',*,*,#575,.F.);
#822=ORIENTED_EDGE('',*,*,#576,.F.);
#823=ORIENTED_EDGE('',*,*,#577,.T.);
#824=ORIENTED_EDGE('',*,*,#577,.F.);
#825=ORIENTED_EDGE('',*,*,#575,.T.);
#826=ORIENTED_EDGE('',*,*,#576,.T.);
#827=ORIENTED_EDGE('',*,*,#574,.T.);
#828=ORIENTED_EDGE('',*,*,#578,.F.);
#829=ORIENTED_EDGE('',*,*,#579,.T.);
#830=ORIENTED_EDGE('',*,*,#578,.T.);
#831=ORIENTED_EDGE('',*,*,#579,.F.);
#832=ORIENTED_EDGE('',*,*,#580,.F.);
#833=ORIENTED_EDGE('',*,*,#581,.T.);
#834=ORIENTED_EDGE('',*,*,#580,.T.);
#835=ORIENTED_EDGE('',*,*,#581,.F.);
#836=PLANE('',#949);
#837=PLANE('',#950);
#838=PLANE('',#951);
#839=PLANE('',#963);
#840=PLANE('',#964);
#841=PLANE('',#965);
#842=PLANE('',#966);
#843=PLANE('',#968);
#844=PLANE('',#969);
#845=PLANE('',#970);
#846=PLANE('',#973);
#847=PLANE('',#974);
#848=PLANE('',#978);
#849=PLANE('',#979);
#850=PLANE('',#982);
#851=PLANE('',#984);
#852=PLANE('',#985);
#853=PLANE('',#986);
#854=PLANE('',#987);
#855=PLANE('',#988);
#856=PLANE('',#989);
#857=PLANE('',#990);
#858=PLANE('',#991);
#859=PLANE('',#992);
#860=PLANE('',#993);
#861=PLANE('',#994);
#862=PLANE('',#995);
#863=PLANE('',#996);
#864=PLANE('',#997);
#865=PLANE('',#998);
#866=PLANE('',#999);
#867=PLANE('',#1000);
#868=PLANE('',#1001);
#869=PLANE('',#1002);
#870=PLANE('',#1003);
#871=PLANE('',#1004);
#872=PLANE('',#1005);
#873=PLANE('',#1006);
#874=PLANE('',#1007);
#875=PLANE('',#1008);
#876=PLANE('',#1009);
#877=PLANE('',#1010);
#878=PLANE('',#1014);
#879=ADVANCED_FACE('',(#65),#836,.F.);
#880=ADVANCED_FACE('',(#66),#837,.F.);
#881=ADVANCED_FACE('',(#67),#838,.F.);
#882=ADVANCED_FACE('',(#68,#40,#41),#49,.F.);
#883=ADVANCED_FACE('',(#69),#839,.T.);
#884=ADVANCED_FACE('',(#70),#840,.T.);
#885=ADVANCED_FACE('',(#71),#841,.F.);
#886=ADVANCED_FACE('',(#72),#842,.F.);
#887=ADVANCED_FACE('',(#73),#843,.F.);
#888=ADVANCED_FACE('',(#74),#844,.T.);
#889=ADVANCED_FACE('',(#75),#845,.T.);
#890=ADVANCED_FACE('',(#76),#50,.T.);
#891=ADVANCED_FACE('',(#77),#36,.T.);
#892=ADVANCED_FACE('',(#78,#42),#846,.T.);
#893=ADVANCED_FACE('',(#79),#847,.F.);
#894=ADVANCED_FACE('',(#80),#37,.T.);
#895=ADVANCED_FACE('',(#81),#848,.T.);
#896=ADVANCED_FACE('',(#82),#849,.F.);
#897=ADVANCED_FACE('',(#83),#38,.T.);
#898=ADVANCED_FACE('',(#84),#850,.T.);
#899=ADVANCED_FACE('',(#85),#39,.T.);
#900=ADVANCED_FACE('',(#86),#851,.T.);
#901=ADVANCED_FACE('',(#87),#852,.T.);
#902=ADVANCED_FACE('',(#88),#853,.T.);
#903=ADVANCED_FACE('',(#89),#854,.T.);
#904=ADVANCED_FACE('',(#90),#855,.T.);
#905=ADVANCED_FACE('',(#91),#856,.T.);
#906=ADVANCED_FACE('',(#92),#857,.T.);
#907=ADVANCED_FACE('',(#93),#858,.T.);
#908=ADVANCED_FACE('',(#94),#859,.T.);
#909=ADVANCED_FACE('',(#95),#860,.T.);
#910=ADVANCED_FACE('',(#96),#861,.T.);
#911=ADVANCED_FACE('',(#97),#862,.T.);
#912=ADVANCED_FACE('',(#98),#863,.T.);
#913=ADVANCED_FACE('',(#99),#864,.T.);
#914=ADVANCED_FACE('',(#100),#865,.T.);
#915=ADVANCED_FACE('',(#101),#866,.T.);
#916=ADVANCED_FACE('',(#102),#867,.T.);
#917=ADVANCED_FACE('',(#103),#868,.T.);
#918=ADVANCED_FACE('',(#104,#43),#869,.T.);
#919=ADVANCED_FACE('',(#105),#870,.T.);
#920=ADVANCED_FACE('',(#106),#871,.T.);
#921=ADVANCED_FACE('',(#107),#872,.T.);
#922=ADVANCED_FACE('',(#108),#873,.T.);
#923=ADVANCED_FACE('',(#109),#874,.T.);
#924=ADVANCED_FACE('',(#110),#875,.T.);
#925=ADVANCED_FACE('',(#111),#876,.T.);
#926=ADVANCED_FACE('',(#112),#877,.T.);
#927=ADVANCED_FACE('',(#113),#51,.T.);
#928=ADVANCED_FACE('',(#114),#52,.F.);
#929=ADVANCED_FACE('',(#115,#44),#878,.T.);
#930=ADVANCED_FACE('',(#116),#13,.T.);
#931=ADVANCED_FACE('',(#117),#14,.T.);
#932=CLOSED_SHELL('',(#879,#880,#881,#882,#883,#884,#885,#886,#887,#888,
#889,#890,#891,#892,#893,#894,#895,#896,#897,#898,#899,#900,#901,#902,#903,
#904,#905,#906,#907,#908,#909,#910,#911,#912,#913,#914,#915,#916,#917,#918,
#919,#920,#921,#922,#923,#924,#925,#926));
#933=CLOSED_SHELL('',(#927,#928,#929));
#934=CLOSED_SHELL('',(#930));
#935=CLOSED_SHELL('',(#931));
#936=DERIVED_UNIT_ELEMENT(#938,1.);
#937=DERIVED_UNIT_ELEMENT(#1698,-3.);
#938=(
MASS_UNIT()
NAMED_UNIT(*)
SI_UNIT(.KILO.,.GRAM.)
);
#939=DERIVED_UNIT((#936,#937));
#940=MEASURE_REPRESENTATION_ITEM('density measure',
POSITIVE_RATIO_MEASURE(7850.),#939);
#941=PROPERTY_DEFINITION_REPRESENTATION(#946,#943);
#942=PROPERTY_DEFINITION_REPRESENTATION(#947,#944);
#943=REPRESENTATION('material name',(#945),#1695);
#944=REPRESENTATION('density',(#940),#1695);
#945=DESCRIPTIVE_REPRESENTATION_ITEM('Steel','Steel');
#946=PROPERTY_DEFINITION('material property','material name',#1705);
#947=PROPERTY_DEFINITION('material property','density of part',#1705);
#948=AXIS2_PLACEMENT_3D('',#1265,#1021,#1022);
#949=AXIS2_PLACEMENT_3D('',#1266,#1023,#1024);
#950=AXIS2_PLACEMENT_3D('',#1275,#1029,#1030);
#951=AXIS2_PLACEMENT_3D('',#1284,#1035,#1036);
#952=AXIS2_PLACEMENT_3D('',#1286,#1037,#1038);
#953=AXIS2_PLACEMENT_3D('',#1289,#1040,#1041);
#954=AXIS2_PLACEMENT_3D('',#1297,#1042,#1043);
#955=AXIS2_PLACEMENT_3D('',#1301,#1045,#1046);
#956=AXIS2_PLACEMENT_3D('',#1305,#1048,#1049);
#957=AXIS2_PLACEMENT_3D('',#1325,#1051,#1052);
#958=AXIS2_PLACEMENT_3D('',#1329,#1054,#1055);
#959=AXIS2_PLACEMENT_3D('',#1333,#1057,#1058);
#960=AXIS2_PLACEMENT_3D('',#1337,#1060,#1061);
#961=AXIS2_PLACEMENT_3D('',#1357,#1063,#1064);
#962=AXIS2_PLACEMENT_3D('',#1361,#1066,#1067);
#963=AXIS2_PLACEMENT_3D('',#1363,#1069,#1070);
#964=AXIS2_PLACEMENT_3D('',#1369,#1074,#1075);
#965=AXIS2_PLACEMENT_3D('',#1373,#1078,#1079);
#966=AXIS2_PLACEMENT_3D('',#1382,#1084,#1085);
#967=AXIS2_PLACEMENT_3D('',#1384,#1086,#1087);
#968=AXIS2_PLACEMENT_3D('',#1386,#1089,#1090);
#969=AXIS2_PLACEMENT_3D('',#1388,#1092,#1093);
#970=AXIS2_PLACEMENT_3D('',#1394,#1097,#1098);
#971=AXIS2_PLACEMENT_3D('',#1404,#1101,#1102);
#972=AXIS2_PLACEMENT_3D('',#1407,#1103,#1104);
#973=AXIS2_PLACEMENT_3D('',#1410,#1107,#1108);
#974=AXIS2_PLACEMENT_3D('',#1417,#1113,#1114);
#975=AXIS2_PLACEMENT_3D('',#1432,#1122,#1123);
#976=AXIS2_PLACEMENT_3D('',#1433,#1124,#1125);
#977=AXIS2_PLACEMENT_3D('',#1436,#1126,#1127);
#978=AXIS2_PLACEMENT_3D('',#1439,#1130,#1131);
#979=AXIS2_PLACEMENT_3D('',#1445,#1135,#1136);
#980=AXIS2_PLACEMENT_3D('',#1449,#1138,#1139);
#981=AXIS2_PLACEMENT_3D('',#1461,#1146,#1147);
#982=AXIS2_PLACEMENT_3D('',#1464,#1150,#1151);
#983=AXIS2_PLACEMENT_3D('',#1468,#1154,#1155);
#984=AXIS2_PLACEMENT_3D('',#1470,#1157,#1158);
#985=AXIS2_PLACEMENT_3D('',#1474,#1161,#1162);
#986=AXIS2_PLACEMENT_3D('',#1478,#1165,#1166);
#987=AXIS2_PLACEMENT_3D('',#1482,#1169,#1170);
#988=AXIS2_PLACEMENT_3D('',#1486,#1173,#1174);
#989=AXIS2_PLACEMENT_3D('',#1490,#1177,#1178);
#990=AXIS2_PLACEMENT_3D('',#1492,#1180,#1181);
#991=AXIS2_PLACEMENT_3D('',#1496,#1184,#1185);
#992=AXIS2_PLACEMENT_3D('',#1500,#1188,#1189);
#993=AXIS2_PLACEMENT_3D('',#1504,#1192,#1193);
#994=AXIS2_PLACEMENT_3D('',#1508,#1196,#1197);
#995=AXIS2_PLACEMENT_3D('',#1512,#1200,#1201);
#996=AXIS2_PLACEMENT_3D('',#1514,#1203,#1204);
#997=AXIS2_PLACEMENT_3D('',#1516,#1206,#1207);
#998=AXIS2_PLACEMENT_3D('',#1517,#1208,#1209);
#999=AXIS2_PLACEMENT_3D('',#1521,#1212,#1213);
#1000=AXIS2_PLACEMENT_3D('',#1523,#1215,#1216);
#1001=AXIS2_PLACEMENT_3D('',#1525,#1218,#1219);
#1002=AXIS2_PLACEMENT_3D('',#1527,#1221,#1222);
#1003=AXIS2_PLACEMENT_3D('',#1528,#1223,#1224);
#1004=AXIS2_PLACEMENT_3D('',#1530,#1226,#1227);
#1005=AXIS2_PLACEMENT_3D('',#1532,#1229,#1230);
#1006=AXIS2_PLACEMENT_3D('',#1535,#1233,#1234);
#1007=AXIS2_PLACEMENT_3D('',#1536,#1235,#1236);
#1008=AXIS2_PLACEMENT_3D('',#1537,#1237,#1238);
#1009=AXIS2_PLACEMENT_3D('',#1540,#1241,#1242);
#1010=AXIS2_PLACEMENT_3D('',#1541,#1243,#1244);
#1011=AXIS2_PLACEMENT_3D('',#1610,#1245,#1246);
#1012=AXIS2_PLACEMENT_3D('',#1676,#1247,#1248);
#1013=AXIS2_PLACEMENT_3D('',#1677,#1249,#1250);
#1014=AXIS2_PLACEMENT_3D('',#1684,#1251,#1252);
#1015=AXIS2_PLACEMENT_3D('',#1685,#1253,#1254);
#1016=AXIS2_PLACEMENT_3D('',#1687,#1255,#1256);
#1017=AXIS2_PLACEMENT_3D('',#1688,#1257,#1258);
#1018=AXIS2_PLACEMENT_3D('',#1689,#1259,#1260);
#1019=AXIS2_PLACEMENT_3D('',#1691,#1261,#1262);
#1020=AXIS2_PLACEMENT_3D('',#1692,#1263,#1264);
#1021=DIRECTION('axis',(0.,0.,1.));
#1022=DIRECTION('refdir',(1.,0.,0.));
#1023=DIRECTION('center_axis',(-1.,0.,0.));
#1024=DIRECTION('ref_axis',(0.,0.,1.));
#1025=DIRECTION('',(0.,0.,1.));
#1026=DIRECTION('',(0.,-1.,0.));
#1027=DIRECTION('',(0.,0.,-1.));
#1028=DIRECTION('',(0.,1.,0.));
#1029=DIRECTION('center_axis',(-1.,0.,0.));
#1030=DIRECTION('ref_axis',(0.,0.,1.));
#1031=DIRECTION('',(0.,1.,0.));
#1032=DIRECTION('',(0.,-0.0923543657517196,0.995726202892441));
#1033=DIRECTION('',(0.,-1.,0.));
#1034=DIRECTION('',(0.,0.0923543657517196,-0.995726202892441));
#1035=DIRECTION('center_axis',(0.,0.,1.));
#1036=DIRECTION('ref_axis',(1.,0.,0.));
#1037=DIRECTION('center_axis',(0.,0.,1.));
#1038=DIRECTION('ref_axis',(0.,1.,0.));
#1039=DIRECTION('',(0.,1.,0.));
#1040=DIRECTION('center_axis',(0.,0.,-1.));
#1041=DIRECTION('ref_axis',(0.,1.,0.));
#1042=DIRECTION('center_axis',(0.,0.,-1.));
#1043=DIRECTION('ref_axis',(0.,1.,0.));
#1044=DIRECTION('',(0.,0.0923543657517196,-0.995726202892441));
#1045=DIRECTION('center_axis',(0.,0.,-1.));
#1046=DIRECTION('ref_axis',(0.,1.,0.));
#1047=DIRECTION('',(0.,-0.0923543657517196,0.995726202892441));
#1048=DIRECTION('center_axis',(8.54017711250121E-17,0.,1.));
#1049=DIRECTION('ref_axis',(0.,1.,0.));
#1050=DIRECTION('',(0.,0.0923543657517196,-0.995726202892441));
#1051=DIRECTION('center_axis',(0.,0.,-1.));
#1052=DIRECTION('ref_axis',(0.,1.,0.));
#1053=DIRECTION('',(0.,-0.0923543657517196,0.995726202892441));
#1054=DIRECTION('center_axis',(0.,0.,1.));
#1055=DIRECTION('ref_axis',(0.,1.,0.));
#1056=DIRECTION('',(0.,-0.0923543657517196,0.995726202892441));
#1057=DIRECTION('center_axis',(0.,0.,1.));
#1058=DIRECTION('ref_axis',(0.,1.,0.));
#1059=DIRECTION('',(0.,0.0923543657517196,-0.995726202892441));
#1060=DIRECTION('center_axis',(0.,0.,-1.));
#1061=DIRECTION('ref_axis',(0.,1.,0.));
#1062=DIRECTION('',(0.,-0.0923543657517196,0.995726202892441));
#1063=DIRECTION('center_axis',(8.54017711250121E-17,0.,1.));
#1064=DIRECTION('ref_axis',(0.,1.,0.));
#1065=DIRECTION('',(0.,0.0923543657517196,-0.995726202892441));
#1066=DIRECTION('center_axis',(0.,0.,-1.));
#1067=DIRECTION('ref_axis',(0.,1.,0.));
#1068=DIRECTION('',(0.,0.0923543657517196,-0.995726202892441));
#1069=DIRECTION('center_axis',(0.,1.,0.));
#1070=DIRECTION('ref_axis',(0.,0.,1.));
#1071=DIRECTION('',(1.,0.,1.09705829914079E-16));
#1072=DIRECTION('',(1.11022302462516E-16,0.,-1.));
#1073=DIRECTION('',(1.,0.,1.09705829914079E-16));
#1074=DIRECTION('center_axis',(1.09705829914079E-16,0.,-1.));
#1075=DIRECTION('ref_axis',(-1.,0.,-1.09705829914079E-16));
#1076=DIRECTION('',(1.,0.,1.09705829914079E-16));
#1077=DIRECTION('',(0.,-1.,0.));
#1078=DIRECTION('center_axis',(1.,0.,0.));
#1079=DIRECTION('ref_axis',(0.,0.,-1.));
#1080=DIRECTION('',(0.,0.,-1.));
#1081=DIRECTION('',(0.,-1.,0.));
#1082=DIRECTION('',(0.,0.,1.));
#1083=DIRECTION('',(0.,1.,0.));
#1084=DIRECTION('center_axis',(0.,0.,-1.));
#1085=DIRECTION('ref_axis',(-1.,0.,0.));
#1086=DIRECTION('center_axis',(0.,0.,1.));
#1087=DIRECTION('ref_axis',(0.,1.,0.));
#1088=DIRECTION('',(0.,1.,0.));
#1089=DIRECTION('center_axis',(1.,0.,0.));
#1090=DIRECTION('ref_axis',(0.,0.,-1.));
#1091=DIRECTION('',(0.,-0.0923543657517196,0.995726202892441));
#1092=DIRECTION('center_axis',(0.,1.,0.));
#1093=DIRECTION('ref_axis',(0.,0.,1.));
#1094=DIRECTION('',(-1.,0.,1.09705829914079E-16));
#1095=DIRECTION('',(0.,0.,1.));
#1096=DIRECTION('',(-1.,0.,1.09705829914079E-16));
#1097=DIRECTION('center_axis',(1.09705829914079E-16,0.,1.));
#1098=DIRECTION('ref_axis',(1.,0.,-1.09705829914079E-16));
#1099=DIRECTION('',(-1.,0.,1.09705829914079E-16));
#1100=DIRECTION('',(0.,-1.,0.));
#1101=DIRECTION('center_axis',(0.,1.,0.));
#1102=DIRECTION('ref_axis',(-0.707106781186548,0.,-0.707106781186547));
#1103=DIRECTION('center_axis',(0.,1.,0.));
#1104=DIRECTION('ref_axis',(-0.707106781186548,0.,-0.707106781186547));
#1105=DIRECTION('',(0.,1.,0.));
#1106=DIRECTION('',(0.,-1.,0.));
#1107=DIRECTION('center_axis',(-1.,0.,0.));
#1108=DIRECTION('ref_axis',(0.,0.,1.));
#1109=DIRECTION('',(0.,0.,1.));
#1110=DIRECTION('',(0.,-1.,0.));
#1111=DIRECTION('',(0.,0.,-1.));
#1112=DIRECTION('',(0.,1.,0.));
#1113=DIRECTION('center_axis',(0.,1.,0.));
#1114=DIRECTION('ref_axis',(0.,0.,1.));
#1115=DIRECTION('',(-1.,0.,0.));
#1116=DIRECTION('',(0.,0.,-1.));
#1117=DIRECTION('',(1.,0.,0.));
#1118=DIRECTION('',(0.,0.,-1.));
#1119=DIRECTION('',(-1.,0.,0.));
#1120=DIRECTION('',(0.,0.,-1.));
#1121=DIRECTION('',(1.,0.,-8.54017711250121E-17));
#1122=DIRECTION('center_axis',(0.,1.,0.));
#1123=DIRECTION('ref_axis',(-0.707106781186548,0.,0.707106781186548));
#1124=DIRECTION('center_axis',(0.,1.,0.));
#1125=DIRECTION('ref_axis',(0.707106781186547,0.,-0.707106781186548));
#1126=DIRECTION('center_axis',(0.,1.,0.));
#1127=DIRECTION('ref_axis',(0.707106781186547,0.,-0.707106781186548));
#1128=DIRECTION('',(0.,1.,0.));
#1129=DIRECTION('',(0.,-1.,0.));
#1130=DIRECTION('center_axis',(0.,0.,-1.));
#1131=DIRECTION('ref_axis',(-1.,0.,0.));
#1132=DIRECTION('',(-1.,0.,0.));
#1133=DIRECTION('',(0.491939405185376,-0.870629439903027,0.));
#1134=DIRECTION('',(0.,1.,0.));
#1135=DIRECTION('center_axis',(0.,1.,0.));
#1136=DIRECTION('ref_axis',(0.,0.,1.));
#1137=DIRECTION('',(1.11022302462516E-16,0.,-1.));
#1138=DIRECTION('center_axis',(0.,1.,0.));
#1139=DIRECTION('ref_axis',(0.707106781186547,0.,0.707106781186548));
#1140=DIRECTION('',(1.,0.,-8.54017711250121E-17));
#1141=DIRECTION('',(0.,0.,1.));
#1142=DIRECTION('',(-1.,0.,0.));
#1143=DIRECTION('',(2.22044604925031E-16,0.,1.));
#1144=DIRECTION('',(1.,0.,0.));
#1145=DIRECTION('',(0.,0.,1.));
#1146=DIRECTION('center_axis',(0.,1.,0.));
#1147=DIRECTION('ref_axis',(0.707106781186547,0.,0.707106781186548));
#1148=DIRECTION('',(0.,1.,0.));
#1149=DIRECTION('',(0.,-1.,0.));
#1150=DIRECTION('center_axis',(8.54017711250121E-17,0.,1.));
#1151=DIRECTION('ref_axis',(1.,0.,-8.54017711250121E-17));
#1152=DIRECTION('',(0.,1.,0.));
#1153=DIRECTION('',(-0.491939405185376,0.870629439903027,4.20124964890161E-17));
#1154=DIRECTION('center_axis',(0.,1.,0.));
#1155=DIRECTION('ref_axis',(-0.707106781186548,0.,0.707106781186548));
#1156=DIRECTION('',(0.,1.,0.));
#1157=DIRECTION('center_axis',(8.54017711250121E-17,0.,1.));
#1158=DIRECTION('ref_axis',(1.,0.,-8.54017711250121E-17));
#1159=DIRECTION('',(-0.491939405185376,-0.870629439903027,4.20124964890161E-17));
#1160=DIRECTION('',(0.,1.,0.));
#1161=DIRECTION('center_axis',(-0.870629439903027,-0.491939405185376,0.));
#1162=DIRECTION('ref_axis',(0.,0.,1.));
#1163=DIRECTION('',(0.,0.,-1.));
#1164=DIRECTION('',(-0.441418009712285,0.781217179408704,0.441418009712284));
#1165=DIRECTION('center_axis',(0.,-0.491939405185376,0.870629439903027));
#1166=DIRECTION('ref_axis',(1.,0.,0.));
#1167=DIRECTION('',(-1.,0.,0.));
#1168=DIRECTION('',(-0.441418009712285,0.781217179408704,0.441418009712284));
#1169=DIRECTION('center_axis',(-0.870629439903027,-0.491939405185376,1.93318570019369E-16));
#1170=DIRECTION('ref_axis',(2.22044604925031E-16,0.,1.));
#1171=DIRECTION('',(-2.22044604925031E-16,0.,-1.));
#1172=DIRECTION('',(-0.441418009712285,0.781217179408704,-0.441418009712284));
#1173=DIRECTION('center_axis',(0.,-0.491939405185376,-0.870629439903027));
#1174=DIRECTION('ref_axis',(-1.,0.,0.));
#1175=DIRECTION('',(1.,0.,0.));
#1176=DIRECTION('',(-0.441418009712284,0.781217179408704,-0.441418009712285));
#1177=DIRECTION('center_axis',(-0.870629439903027,-0.491939405185376,0.));
#1178=DIRECTION('ref_axis',(0.,0.,1.));
#1179=DIRECTION('',(0.,0.,-1.));
#1180=DIRECTION('center_axis',(0.870629439903027,-0.491939405185376,0.));
#1181=DIRECTION('ref_axis',(0.,0.,-1.));
#1182=DIRECTION('',(0.,0.,1.));
#1183=DIRECTION('',(0.441418009712284,0.781217179408704,-0.441418009712285));
#1184=DIRECTION('center_axis',(0.,-0.491939405185376,-0.870629439903027));
#1185=DIRECTION('ref_axis',(-1.,0.,0.));
#1186=DIRECTION('',(1.,0.,0.));
#1187=DIRECTION('',(0.441418009712285,0.781217179408704,-0.441418009712285));
#1188=DIRECTION('center_axis',(0.870629439903027,-0.491939405185376,0.));
#1189=DIRECTION('ref_axis',(0.,0.,-1.));
#1190=DIRECTION('',(0.,0.,1.));
#1191=DIRECTION('',(0.441418009712285,0.781217179408704,0.441418009712284));
#1192=DIRECTION('center_axis',(0.,-0.491939405185376,0.870629439903027));
#1193=DIRECTION('ref_axis',(1.,0.,0.));
#1194=DIRECTION('',(-1.,0.,0.));
#1195=DIRECTION('',(0.441418009712284,0.781217179408704,0.441418009712285));
#1196=DIRECTION('center_axis',(0.870629439903027,-0.491939405185376,0.));
#1197=DIRECTION('ref_axis',(0.,0.,-1.));
#1198=DIRECTION('',(0.491939405185376,0.870629439903027,0.));
#1199=DIRECTION('',(0.,0.,1.));
#1200=DIRECTION('center_axis',(0.,0.,-1.));
#1201=DIRECTION('ref_axis',(-1.,0.,0.));
#1202=DIRECTION('',(0.,1.,0.));
#1203=DIRECTION('center_axis',(0.,-1.,0.));
#1204=DIRECTION('ref_axis',(0.,0.,-1.));
#1205=DIRECTION('',(-1.,0.,1.09705829914079E-16));
#1206=DIRECTION('center_axis',(-1.09705829914079E-16,0.,-1.));
#1207=DIRECTION('ref_axis',(-1.,0.,1.09705829914079E-16));
#1208=DIRECTION('center_axis',(0.,-1.,0.));
#1209=DIRECTION('ref_axis',(0.,0.,-1.));
#1210=DIRECTION('',(1.,0.,1.09705829914079E-16));
#1211=DIRECTION('',(-1.11022302462516E-16,0.,1.));
#1212=DIRECTION('center_axis',(-1.09705829914079E-16,0.,1.));
#1213=DIRECTION('ref_axis',(1.,0.,1.09705829914079E-16));
#1214=DIRECTION('',(0.,1.,0.));
#1215=DIRECTION('center_axis',(1.,0.,0.));
#1216=DIRECTION('ref_axis',(0.,0.,-1.));
#1217=DIRECTION('',(0.,1.,0.));
#1218=DIRECTION('center_axis',(0.,0.,-1.));
#1219=DIRECTION('ref_axis',(-1.,0.,0.));
#1220=DIRECTION('',(0.,1.,0.));
#1221=DIRECTION('center_axis',(1.,0.,1.11022302462516E-16));
#1222=DIRECTION('ref_axis',(1.11022302462516E-16,0.,-1.));
#1223=DIRECTION('center_axis',(-1.,0.,0.));
#1224=DIRECTION('ref_axis',(0.,0.,1.));
#1225=DIRECTION('',(0.,1.,0.));
#1226=DIRECTION('center_axis',(0.,0.,1.));
#1227=DIRECTION('ref_axis',(1.,0.,0.));
#1228=DIRECTION('',(0.,1.,0.));
#1229=DIRECTION('center_axis',(0.,0.,1.));
#1230=DIRECTION('ref_axis',(1.,0.,0.));
#1231=DIRECTION('',(0.,1.,0.));
#1232=DIRECTION('',(0.,1.,0.));
#1233=DIRECTION('center_axis',(1.,0.,0.));
#1234=DIRECTION('ref_axis',(0.,0.,-1.));
#1235=DIRECTION('center_axis',(1.,0.,0.));
#1236=DIRECTION('ref_axis',(0.,0.,-1.));
#1237=DIRECTION('center_axis',(0.,0.,-1.));
#1238=DIRECTION('ref_axis',(-1.,0.,0.));
#1239=DIRECTION('',(0.,1.,0.));
#1240=DIRECTION('',(0.,1.,0.));
#1241=DIRECTION('center_axis',(-1.,0.,2.22044604925031E-16));
#1242=DIRECTION('ref_axis',(2.22044604925031E-16,0.,1.));
#1243=DIRECTION('center_axis',(-1.,0.,0.));
#1244=DIRECTION('ref_axis',(0.,0.,1.));
#1245=DIRECTION('center_axis',(0.,1.,0.));
#1246=DIRECTION('ref_axis',(0.,0.,-1.));
#1247=DIRECTION('center_axis',(0.,-1.,0.));
#1248=DIRECTION('ref_axis',(1.,0.,0.));
#1249=DIRECTION('center_axis',(0.,-1.,0.));
#1250=DIRECTION('ref_axis',(1.,0.,0.));
#1251=DIRECTION('center_axis',(0.,-1.,0.));
#1252=DIRECTION('ref_axis',(0.,0.,-1.));
#1253=DIRECTION('center_axis',(0.,1.,-2.22044604925031E-16));
#1254=DIRECTION('ref_axis',(1.,0.,0.));
#1255=DIRECTION('center_axis',(1.22464679914735E-16,2.22044604925031E-16,
1.));
#1256=DIRECTION('ref_axis',(-1.,0.,1.22464679914735E-16));
#1257=DIRECTION('center_axis',(0.,-1.,2.22044604925031E-16));
#1258=DIRECTION('ref_axis',(1.,5.17540704938248E-48,2.33079612590896E-32));
#1259=DIRECTION('center_axis',(0.,1.,-2.22044604925031E-16));
#1260=DIRECTION('ref_axis',(1.,0.,0.));
#1261=DIRECTION('center_axis',(1.22464679914735E-16,2.22044604925031E-16,
1.));
#1262=DIRECTION('ref_axis',(-1.,0.,1.22464679914735E-16));
#1263=DIRECTION('center_axis',(0.,-1.,2.22044604925031E-16));
#1264=DIRECTION('ref_axis',(1.,7.24556986913547E-48,3.26311457627254E-32));
#1265=CARTESIAN_POINT('',(0.,0.,0.));
#1266=CARTESIAN_POINT('Origin',(3.26864544445003,6.12279099046544,-2.9389636539616));
#1267=CARTESIAN_POINT('',(3.26864544445003,15.3256989904654,-0.500000000002081));
#1268=CARTESIAN_POINT('',(3.26864544445003,15.3256989904654,0.49999999999792));
#1269=CARTESIAN_POINT('',(3.26864544445003,15.3256989904654,-1.21948182698184));
#1270=CARTESIAN_POINT('',(3.26864544445003,22.0509009904654,-0.500000000002081));
#1271=CARTESIAN_POINT('',(3.26864544445003,10.7242449904654,-0.50000000000208));
#1272=CARTESIAN_POINT('',(3.26864544445003,22.0509009904654,0.49999999999792));
#1273=CARTESIAN_POINT('',(3.26864544445003,22.0509009904654,-1.71948182698184));
#1274=CARTESIAN_POINT('',(3.26864544445003,14.0868459904654,0.499999999997919));
#1275=CARTESIAN_POINT('Origin',(3.26864544445003,6.12279099046544,-2.9389636539616));
#1276=CARTESIAN_POINT('',(3.26864544445003,22.1658010918533,2.51901829620039));
#1277=CARTESIAN_POINT('',(3.26864544445003,24.8577840547297,2.51901829620039));
#1278=CARTESIAN_POINT('',(3.26864544445003,6.12279099046544,2.51901829620039));
#1279=CARTESIAN_POINT('',(3.26864544445003,22.6339836706253,-2.52873074767572));
#1280=CARTESIAN_POINT('',(3.26864544445003,22.5593845417111,-1.72443409349848));
#1281=CARTESIAN_POINT('',(3.26864544445003,25.3259666335017,-2.52873074767572));
#1282=CARTESIAN_POINT('',(3.26864544445003,6.12279099046544,-2.52873074767572));
#1283=CARTESIAN_POINT('',(3.26864544445003,25.2439940224189,-1.6449362880379));
#1284=CARTESIAN_POINT('Origin',(-3.29560475276428,6.12279099046544,-2.52873074767572));
#1285=CARTESIAN_POINT('',(-3.29560475276428,22.6413637862411,-2.52873074767572));
#1286=CARTESIAN_POINT('Origin',(5.30766060450133E-24,60.2937765627299,-2.52873074767572));
#1287=CARTESIAN_POINT('',(-3.29560475276428,25.3339150289436,-2.52873074767572));
#1288=CARTESIAN_POINT('',(-3.29560475276428,6.12279099046544,-2.52873074767572));
#1289=CARTESIAN_POINT('Origin',(5.30766060450133E-24,60.2937765627299,-2.52873074767572));
#1290=CARTESIAN_POINT('Ctrl Pts',(-3.29560475276428,22.6413637862411,-2.52873074767572));
#1291=CARTESIAN_POINT('Ctrl Pts',(-0.0138012814747434,21.7468863034221,
-2.61169421731725));
#1292=CARTESIAN_POINT('Ctrl Pts',(3.26864544445003,22.6340466180585,-2.52940942061276));
#1293=CARTESIAN_POINT('Ctrl Pts',(-3.29560475276428,22.1680701720358,2.57412334579309));
#1294=CARTESIAN_POINT('Ctrl Pts',(-0.0138012814747434,21.2735926892168,
2.49115987615156));
#1295=CARTESIAN_POINT('Ctrl Pts',(3.26864544445003,22.1607530038532,2.57344467285605));
#1296=CARTESIAN_POINT('',(-3.29560475276428,22.1731812074691,2.5190182962004));
#1297=CARTESIAN_POINT('Origin',(5.30766060450133E-24,59.8255939839579,2.51901829620039));
#1298=CARTESIAN_POINT('',(-3.29560475276428,22.5667444428042,-1.72421614895589));
#1299=CARTESIAN_POINT('',(2.165,22.0922355290059,0.624999999999929));
#1300=CARTESIAN_POINT('',(0.675,21.9173451325365,0.625));
#1301=CARTESIAN_POINT('Origin',(5.30766060450133E-24,60.0012656273872,0.625));
#1302=CARTESIAN_POINT('',(0.675,21.7434374506042,2.49999999999794));
#1303=CARTESIAN_POINT('',(0.675,22.1364186466576,-1.73695914069178));
#1304=CARTESIAN_POINT('',(2.24999999999828,21.933876783973,2.49999999999792));
#1305=CARTESIAN_POINT('Origin',(5.30766060450133E-24,59.8273579454549,2.49999999999792));
#1306=CARTESIAN_POINT('',(3.24999999999828,22.2552479219393,1.49999999999792));
#1307=CARTESIAN_POINT('Ctrl Pts',(2.24999999999828,21.933876783973,2.49999999999792));
#1308=CARTESIAN_POINT('Ctrl Pts',(2.54079656400694,21.9881070762932,2.49999999999792));
#1309=CARTESIAN_POINT('Ctrl Pts',(2.85045064949277,22.0730815231513,2.35409641493304));
#1310=CARTESIAN_POINT('Ctrl Pts',(3.03595723538728,22.1418465303011,2.11828086185577));
#1311=CARTESIAN_POINT('Ctrl Pts',(3.17125312538942,22.1919990507547,1.94629303201086));
#1312=CARTESIAN_POINT('Ctrl Pts',(3.24999999999828,22.2354948675223,1.71296918353407));
#1313=CARTESIAN_POINT('Ctrl Pts',(3.24999999999828,22.2552479219393,1.49999999999792));
#1314=CARTESIAN_POINT('',(3.24999999999828,22.5335002130313,-1.50000000000208));
#1315=CARTESIAN_POINT('',(3.24999999999828,22.5543305278326,-1.72458375512152));
#1316=CARTESIAN_POINT('',(2.24999999999828,22.3976306024596,-2.50000000000208));
#1317=CARTESIAN_POINT('Ctrl Pts',(3.24999999999828,22.5335002130313,-1.50000000000208));
#1318=CARTESIAN_POINT('Ctrl Pts',(3.24999999999828,22.5632529632785,-1.82078172794827));
#1319=CARTESIAN_POINT('Ctrl Pts',(3.07314969970035,22.5447291281954,-2.16009423024699));
#1320=CARTESIAN_POINT('Ctrl Pts',(2.78980222996839,22.4958675710484,-2.34179187007407));
#1321=CARTESIAN_POINT('Ctrl Pts',(2.62898986800047,22.4681364520034,-2.44491340721795));
#1322=CARTESIAN_POINT('Ctrl Pts',(2.43130404368998,22.4314417698019,-2.50000000000208));
#1323=CARTESIAN_POINT('Ctrl Pts',(2.24999999999828,22.3976306024596,-2.50000000000208));
#1324=CARTESIAN_POINT('',(0.675,22.2071912690905,-2.49999999999794));
#1325=CARTESIAN_POINT('Origin',(5.30766060450133E-24,60.2911117639416,-2.50000000000208));
#1326=CARTESIAN_POINT('',(0.675,22.0332835871582,-0.625));
#1327=CARTESIAN_POINT('',(0.675,22.1364186466576,-1.73695914069178));
#1328=CARTESIAN_POINT('',(2.165,22.2081739836275,-0.625));
#1329=CARTESIAN_POINT('Origin',(5.30766060450133E-24,60.1172040820089,-0.625));
#1330=CARTESIAN_POINT('',(2.165,22.3108300091815,-1.73179439674385));
#1331=CARTESIAN_POINT('',(-2.165,22.2081739836275,-0.625));
#1332=CARTESIAN_POINT('',(-0.675,22.0332835871582,-0.625));
#1333=CARTESIAN_POINT('Origin',(5.30766060450133E-24,60.1172040820089,-0.625));
#1334=CARTESIAN_POINT('',(-0.675,22.2071912690905,-2.49999999999794));
#1335=CARTESIAN_POINT('',(-0.675,22.1364186466576,-1.73695914069178));
#1336=CARTESIAN_POINT('',(-2.25000000000172,22.3976306024603,-2.50000000000208));
#1337=CARTESIAN_POINT('Origin',(5.30766060450133E-24,60.2911117639416,-2.50000000000208));
#1338=CARTESIAN_POINT('',(-3.25000000000172,22.5335002130322,-1.50000000000208));
#1339=CARTESIAN_POINT('Ctrl Pts',(-2.25000000000172,22.3976306024603,-2.50000000000208));
#1340=CARTESIAN_POINT('Ctrl Pts',(-2.57210112192498,22.45769884315,-2.50000000000208));
#1341=CARTESIAN_POINT('Ctrl Pts',(-2.91305561354365,22.5218858113642,-2.32236295962472));
#1342=CARTESIAN_POINT('Ctrl Pts',(-3.0950848145378,22.5421274155284,-2.03463226262801));
#1343=CARTESIAN_POINT('Ctrl Pts',(-3.19604892088401,22.5533546003114,-1.87503988661368));
#1344=CARTESIAN_POINT('Ctrl Pts',(-3.25000000000172,22.5501396220965,-1.67939915965258));
#1345=CARTESIAN_POINT('Ctrl Pts',(-3.25000000000172,22.5335002130322,-1.50000000000208));
#1346=CARTESIAN_POINT('',(-3.25000000000172,22.2552479219402,1.49999999999792));
#1347=CARTESIAN_POINT('',(-3.25000000000172,22.5543305278336,-1.72458375512149));
#1348=CARTESIAN_POINT('',(-2.25000000000172,21.9338767839736,2.49999999999792));
#1349=CARTESIAN_POINT('Ctrl Pts',(-3.25000000000172,22.2552479219402,1.49999999999792));
#1350=CARTESIAN_POINT('Ctrl Pts',(-3.25000000000172,22.2266616231703,1.80820553524553));
#1351=CARTESIAN_POINT('Ctrl Pts',(-3.08757055860687,22.1507586937626,2.13292698694722));
#1352=CARTESIAN_POINT('Ctrl Pts',(-2.82644306718483,22.0723028736014,2.3171373142215));
#1353=CARTESIAN_POINT('Ctrl Pts',(-2.65972991794028,22.0222138661805,2.43474378918904));
#1354=CARTESIAN_POINT('Ctrl Pts',(-2.4459546027697,21.9704201159963,2.49999999999792));
#1355=CARTESIAN_POINT('Ctrl Pts',(-2.25000000000172,21.9338767839736,2.49999999999792));
#1356=CARTESIAN_POINT('',(-0.675,21.7434374506042,2.49999999999794));
#1357=CARTESIAN_POINT('Origin',(5.30766060450133E-24,59.8273579454549,2.49999999999792));
#1358=CARTESIAN_POINT('',(-0.675,21.9173451325365,0.625));
#1359=CARTESIAN_POINT('',(-0.675,22.1364186466576,-1.73695914069178));
#1360=CARTESIAN_POINT('',(-2.165,22.0922355290059,0.624999999999929));
#1361=CARTESIAN_POINT('Origin',(5.30766060450133E-24,60.0012656273872,0.625));
#1362=CARTESIAN_POINT('',(-2.165,22.3108300091815,-1.73179439674385));
#1363=CARTESIAN_POINT('Origin',(3.24999999999828,22.0509009904654,-0.500000000002081));
#1364=CARTESIAN_POINT('',(3.24999999999828,22.0509009904654,-0.500000000002081));
#1365=CARTESIAN_POINT('',(3.24999999999828,22.0509009904654,-0.500000000002081));
#1366=CARTESIAN_POINT('',(3.24999999999828,22.0509009904654,0.49999999999792));
#1367=CARTESIAN_POINT('',(3.24999999999828,22.0509009904654,0.999999999997919));
#1368=CARTESIAN_POINT('',(3.24999999999828,22.0509009904654,0.49999999999792));
#1369=CARTESIAN_POINT('Origin',(3.24999999999828,15.3256989904654,-0.500000000002081));
#1370=CARTESIAN_POINT('',(3.24999999999828,15.3256989904654,-0.500000000002081));
#1371=CARTESIAN_POINT('',(3.24999999999828,15.3256989904654,-0.500000000002081));
#1372=CARTESIAN_POINT('',(3.24999999999828,10.7242449904654,-0.50000000000208));
#1373=CARTESIAN_POINT('Origin',(-3.29560475276428,6.12279099046544,2.51901829620039));
#1374=CARTESIAN_POINT('',(-3.29560475276428,15.3256989904654,0.49999999999792));
#1375=CARTESIAN_POINT('',(-3.29560475276428,15.3256989904654,-0.500000000002081));
#1376=CARTESIAN_POINT('',(-3.29560475276428,15.3256989904654,1.00950914809916));
#1377=CARTESIAN_POINT('',(-3.29560475276428,22.0509009904654,0.49999999999792));
#1378=CARTESIAN_POINT('',(-3.29560475276428,10.7242449904654,0.49999999999792));
#1379=CARTESIAN_POINT('',(-3.29560475276428,22.0509009904654,-0.500000000002081));
#1380=CARTESIAN_POINT('',(-3.29560475276428,22.0509009904654,1.50950914809916));
#1381=CARTESIAN_POINT('',(-3.29560475276428,14.0868459904654,-0.50000000000208));
#1382=CARTESIAN_POINT('Origin',(9.60631064422056,6.12279099046544,2.51901829620039));
#1383=CARTESIAN_POINT('',(-3.29560475276428,24.8657324501716,2.51901829620039));
#1384=CARTESIAN_POINT('Origin',(5.30766060450133E-24,59.8255939839579,2.51901829620039));
#1385=CARTESIAN_POINT('',(-3.29560475276428,6.12279099046544,2.51901829620039));
#1386=CARTESIAN_POINT('Origin',(-3.29560475276428,6.12279099046544,2.51901829620039));
#1387=CARTESIAN_POINT('',(-3.29560475276428,25.2519206467898,-1.64470156144294));
#1388=CARTESIAN_POINT('Origin',(-3.24999999999828,22.0509009904654,0.49999999999792));
#1389=CARTESIAN_POINT('',(-3.24999999999828,22.0509009904654,0.49999999999792));
#1390=CARTESIAN_POINT('',(-3.24999999999828,22.0509009904654,0.49999999999792));
#1391=CARTESIAN_POINT('',(-3.24999999999828,22.0509009904654,-0.500000000002081));
#1392=CARTESIAN_POINT('',(-3.25000000000172,22.0509009904654,-1.00000000000208));
#1393=CARTESIAN_POINT('',(-3.24999999999828,22.0509009904654,-0.500000000002081));
#1394=CARTESIAN_POINT('Origin',(-3.24999999999828,15.3256989904654,0.49999999999792));
#1395=CARTESIAN_POINT('',(-3.24999999999828,15.3256989904654,0.49999999999792));
#1396=CARTESIAN_POINT('',(-3.24999999999828,15.3256989904654,0.49999999999792));
#1397=CARTESIAN_POINT('',(-3.25000000000172,10.7242449904654,0.499999999997919));
#1398=CARTESIAN_POINT('Ctrl Pts',(-3.29560475276427,25.3339150289436,-2.52873074767572));
#1399=CARTESIAN_POINT('Ctrl Pts',(-0.0138527200354439,24.3705614559933,
-2.61808252727742));
#1400=CARTESIAN_POINT('Ctrl Pts',(3.26864544445003,25.3260344279805,-2.52946167943345));
#1401=CARTESIAN_POINT('Ctrl Pts',(-3.29560475276427,24.8602346180078,2.57829362660929));
#1402=CARTESIAN_POINT('Ctrl Pts',(-0.0138527200354439,23.8968810450575,
2.48894184700759));
#1403=CARTESIAN_POINT('Ctrl Pts',(3.26864544445003,24.8523540170446,2.57756269485156));
#1404=CARTESIAN_POINT('Origin',(-2.25000000000172,6.12279099046544,-1.50000000000208));
#1405=CARTESIAN_POINT('',(-2.25000000000172,8.24653899046544,-2.50000000000208));
#1406=CARTESIAN_POINT('',(-3.25000000000172,8.24653899046544,-1.50000000000208));
#1407=CARTESIAN_POINT('Origin',(-2.25000000000172,8.24653899046544,-1.50000000000208));
#1408=CARTESIAN_POINT('',(-3.25000000000172,6.12279099046544,-1.50000000000208));
#1409=CARTESIAN_POINT('',(-2.25000000000172,6.12279099046544,-2.50000000000208));
#1410=CARTESIAN_POINT('Origin',(-3.25000000000172,6.12279099046544,-2.50000000000208));
#1411=CARTESIAN_POINT('',(-3.25000000000172,8.24653899046544,1.49999999999792));
#1412=CARTESIAN_POINT('',(-3.25000000000172,8.24653899046544,-1.25000000000208));
#1413=CARTESIAN_POINT('',(-3.25000000000172,6.12279099046544,1.49999999999792));
#1414=CARTESIAN_POINT('',(-3.24999999999828,15.3256989904654,-0.500000000002081));
#1415=CARTESIAN_POINT('',(-3.25000000000172,15.3256989904654,-1.50000000000208));
#1416=CARTESIAN_POINT('',(-3.25000000000172,14.0868459904654,-0.50000000000208));
#1417=CARTESIAN_POINT('Origin',(-1.96250000000086,8.24653899046544,-2.08014161451331E-12));
#1418=CARTESIAN_POINT('',(-1.175,8.24653899046544,-2.50000000000208));
#1419=CARTESIAN_POINT('',(-1.31875000000043,8.24653899046544,-2.50000000000208));
#1420=CARTESIAN_POINT('',(-1.175,8.24653899046544,-1.125));
#1421=CARTESIAN_POINT('',(-1.175,8.24653899046544,-0.31250000000104));
#1422=CARTESIAN_POINT('',(-2.665,8.24653899046544,-1.125));
#1423=CARTESIAN_POINT('',(-2.06375000000043,8.24653899046544,-1.125));
#1424=CARTESIAN_POINT('',(-2.665,8.24653899046544,1.125));
#1425=CARTESIAN_POINT('',(-2.665,8.24653899046544,0.31249999999896));
#1426=CARTESIAN_POINT('',(-1.175,8.24653899046544,1.125));
#1427=CARTESIAN_POINT('',(-1.31875000000043,8.24653899046544,1.125));
#1428=CARTESIAN_POINT('',(-1.175,8.24653899046544,2.49999999999792));
#1429=CARTESIAN_POINT('',(-1.175,8.24653899046544,1.24999999999792));
#1430=CARTESIAN_POINT('',(-2.25000000000172,8.24653899046544,2.49999999999792));
#1431=CARTESIAN_POINT('',(-2.60625000000129,8.24653899046544,2.49999999999792));
#1432=CARTESIAN_POINT('Origin',(-2.25000000000172,8.24653899046544,1.49999999999792));
#1433=CARTESIAN_POINT('Origin',(2.24999999999828,6.12279099046544,-1.50000000000208));
#1434=CARTESIAN_POINT('',(3.24999999999828,8.24653899046544,-1.50000000000208));
#1435=CARTESIAN_POINT('',(2.24999999999828,8.24653899046544,-2.50000000000208));
#1436=CARTESIAN_POINT('Origin',(2.24999999999828,8.24653899046544,-1.50000000000208));
#1437=CARTESIAN_POINT('',(2.24999999999828,6.12279099046544,-2.50000000000208));
#1438=CARTESIAN_POINT('',(3.24999999999828,6.12279099046544,-1.50000000000208));
#1439=CARTESIAN_POINT('Origin',(3.24999999999828,6.12279099046544,-2.50000000000208));
#1440=CARTESIAN_POINT('',(1.175,8.24653899046544,-2.50000000000208));
#1441=CARTESIAN_POINT('',(2.60624999999871,8.24653899046544,-2.50000000000208));
#1442=CARTESIAN_POINT('',(0.675,9.13143399046544,-2.49999999999792));
#1443=CARTESIAN_POINT('',(1.86874999999957,7.0187471779662,-2.50000000000208));
#1444=CARTESIAN_POINT('',(0.675,6.12279099046544,-2.49999999999792));
#1445=CARTESIAN_POINT('Origin',(1.96249999999914,8.24653899046544,-2.08000283663523E-12));
#1446=CARTESIAN_POINT('',(3.24999999999828,8.24653899046544,1.49999999999792));
#1447=CARTESIAN_POINT('',(3.24999999999828,8.24653899046544,1.24999999999792));
#1448=CARTESIAN_POINT('',(2.24999999999828,8.24653899046544,2.49999999999792));
#1449=CARTESIAN_POINT('Origin',(2.24999999999828,8.24653899046544,1.49999999999792));
#1450=CARTESIAN_POINT('',(1.175,8.24653899046544,2.49999999999792));
#1451=CARTESIAN_POINT('',(1.31874999999957,8.24653899046544,2.49999999999792));
#1452=CARTESIAN_POINT('',(1.175,8.24653899046544,1.125));
#1453=CARTESIAN_POINT('',(1.175,8.24653899046544,0.31249999999896));
#1454=CARTESIAN_POINT('',(2.665,8.24653899046544,1.125));
#1455=CARTESIAN_POINT('',(2.06374999999957,8.24653899046544,1.125));
#1456=CARTESIAN_POINT('',(2.665,8.24653899046544,-1.125));
#1457=CARTESIAN_POINT('',(2.665,8.24653899046544,-0.31250000000104));
#1458=CARTESIAN_POINT('',(1.175,8.24653899046544,-1.125));
#1459=CARTESIAN_POINT('',(1.31874999999957,8.24653899046544,-1.125));
#1460=CARTESIAN_POINT('',(1.175,8.24653899046544,-1.25));
#1461=CARTESIAN_POINT('Origin',(2.24999999999828,6.12279099046544,1.49999999999792));
#1462=CARTESIAN_POINT('',(3.24999999999828,6.12279099046544,1.49999999999792));
#1463=CARTESIAN_POINT('',(2.24999999999828,6.12279099046544,2.49999999999792));
#1464=CARTESIAN_POINT('Origin',(0.675,6.12279099046544,2.49999999999792));
#1465=CARTESIAN_POINT('',(0.675,9.13143399046544,2.49999999999792));
#1466=CARTESIAN_POINT('',(0.675,6.12279099046544,2.49999999999792));
#1467=CARTESIAN_POINT('',(1.225,8.15804949046544,2.49999999999792));
#1468=CARTESIAN_POINT('Origin',(-2.25000000000172,6.12279099046544,1.49999999999792));
#1469=CARTESIAN_POINT('',(-2.25000000000172,6.12279099046544,2.49999999999792));
#1470=CARTESIAN_POINT('Origin',(-3.25000000000172,6.12279099046544,2.49999999999792));
#1471=CARTESIAN_POINT('',(-0.675,9.13143399046544,2.49999999999792));
#1472=CARTESIAN_POINT('',(-1.86875000000043,7.01874717796468,2.49999999999792));
#1473=CARTESIAN_POINT('',(-0.675,6.12279099046544,2.49999999999792));
#1474=CARTESIAN_POINT('Origin',(0.925,8.68898649046544,-1.25));
#1475=CARTESIAN_POINT('',(0.675,9.13143399046544,-0.625));
#1476=CARTESIAN_POINT('',(0.675,9.13143399046544,-1.25));
#1477=CARTESIAN_POINT('',(1.175,8.24653899046544,-1.125));
#1478=CARTESIAN_POINT('Origin',(1.31874999999957,8.68898649046544,-0.875));
#1479=CARTESIAN_POINT('',(2.165,9.13143399046544,-0.625));
#1480=CARTESIAN_POINT('',(1.31874999999957,9.13143399046544,-0.625));
#1481=CARTESIAN_POINT('',(2.665,8.24653899046544,-1.125));
#1482=CARTESIAN_POINT('Origin',(2.415,8.68898649046544,-0.31250000000104));
#1483=CARTESIAN_POINT('',(2.165,9.13143399046544,0.625));
#1484=CARTESIAN_POINT('',(2.165,9.13143399046544,-0.31250000000104));
#1485=CARTESIAN_POINT('',(2.665,8.24653899046544,1.125));
#1486=CARTESIAN_POINT('Origin',(2.06374999999957,8.68898649046544,0.875));
#1487=CARTESIAN_POINT('',(0.675,9.13143399046544,0.625));
#1488=CARTESIAN_POINT('',(2.06374999999957,9.13143399046544,0.625));
#1489=CARTESIAN_POINT('',(1.175,8.24653899046544,1.125));
#1490=CARTESIAN_POINT('Origin',(0.925,8.68898649046544,0.31249999999896));
#1491=CARTESIAN_POINT('',(0.675,9.13143399046544,0.31249999999896));
#1492=CARTESIAN_POINT('Origin',(-0.925,8.68898649046544,1.24999999999792));
#1493=CARTESIAN_POINT('',(-0.675,9.13143399046544,0.625));
#1494=CARTESIAN_POINT('',(-0.675,9.13143399046544,1.24999999999792));
#1495=CARTESIAN_POINT('',(-1.175,8.24653899046544,1.125));
#1496=CARTESIAN_POINT('Origin',(-1.31875000000043,8.68898649046544,0.875));
#1497=CARTESIAN_POINT('',(-2.165,9.13143399046544,0.625));
#1498=CARTESIAN_POINT('',(-1.31875000000043,9.13143399046544,0.625));
#1499=CARTESIAN_POINT('',(-2.665,8.24653899046544,1.125));
#1500=CARTESIAN_POINT('Origin',(-2.415,8.68898649046544,0.31249999999896));
#1501=CARTESIAN_POINT('',(-2.165,9.13143399046544,-0.625));
#1502=CARTESIAN_POINT('',(-2.165,9.13143399046544,0.31249999999896));
#1503=CARTESIAN_POINT('',(-2.665,8.24653899046544,-1.125));
#1504=CARTESIAN_POINT('Origin',(-2.06375000000043,8.68898649046544,-0.875));
#1505=CARTESIAN_POINT('',(-0.675,9.13143399046544,-0.625));
#1506=CARTESIAN_POINT('',(-2.06375000000043,9.13143399046544,-0.625));
#1507=CARTESIAN_POINT('',(-1.175,8.24653899046544,-1.125));
#1508=CARTESIAN_POINT('Origin',(-0.925,8.68898649046544,-0.31250000000104));
#1509=CARTESIAN_POINT('',(-0.675,9.13143399046544,-2.49999999999792));
#1510=CARTESIAN_POINT('',(-1.225,8.15804949046544,-2.50000000000208));
#1511=CARTESIAN_POINT('',(-0.675,9.13143399046544,-0.31250000000104));
#1512=CARTESIAN_POINT('Origin',(-0.675,6.12279099046544,-2.50000000000208));
#1513=CARTESIAN_POINT('',(-0.675,6.12279099046544,-2.49999999999792));
#1514=CARTESIAN_POINT('Origin',(-3.24999999999828,15.3256989904654,-0.500000000002081));
#1515=CARTESIAN_POINT('',(-3.24999999999828,15.3256989904654,-0.500000000002081));
#1516=CARTESIAN_POINT('Origin',(-3.24999999999828,22.0509009904654,-0.500000000002081));
#1517=CARTESIAN_POINT('Origin',(3.24999999999828,15.3256989904654,0.49999999999792));
#1518=CARTESIAN_POINT('',(3.24999999999828,15.3256989904654,0.49999999999792));
#1519=CARTESIAN_POINT('',(3.24999999999828,15.3256989904654,0.49999999999792));
#1520=CARTESIAN_POINT('',(3.24999999999828,15.3256989904654,1.49999999999792));
#1521=CARTESIAN_POINT('Origin',(3.24999999999828,22.0509009904654,0.49999999999792));
#1522=CARTESIAN_POINT('',(3.24999999999828,14.0868459904654,0.499999999997919));
#1523=CARTESIAN_POINT('Origin',(-0.675,6.12279099046544,2.49999999999792));
#1524=CARTESIAN_POINT('',(-0.675,6.12279099046544,0.625));
#1525=CARTESIAN_POINT('Origin',(-0.675,6.12279099046544,0.625));
#1526=CARTESIAN_POINT('',(-2.165,6.12279099046544,0.625));
#1527=CARTESIAN_POINT('Origin',(3.24999999999828,6.12279099046544,2.49999999999792));
#1528=CARTESIAN_POINT('Origin',(0.675,6.12279099046544,-2.49999999999792));
#1529=CARTESIAN_POINT('',(0.675,6.12279099046544,-0.625));
#1530=CARTESIAN_POINT('Origin',(0.675,6.12279099046544,-0.625));
#1531=CARTESIAN_POINT('',(2.165,6.12279099046544,-0.625));
#1532=CARTESIAN_POINT('Origin',(-2.165,6.12279099046544,-0.625));
#1533=CARTESIAN_POINT('',(-0.675,6.12279099046544,-0.625));
#1534=CARTESIAN_POINT('',(-2.165,6.12279099046544,-0.625));
#1535=CARTESIAN_POINT('Origin',(-2.165,6.12279099046544,0.625));
#1536=CARTESIAN_POINT('Origin',(-0.675,6.12279099046544,-0.625));
#1537=CARTESIAN_POINT('Origin',(2.165,6.12279099046544,0.625));
#1538=CARTESIAN_POINT('',(0.675,6.12279099046544,0.625));
#1539=CARTESIAN_POINT('',(2.165,6.12279099046544,0.625));
#1540=CARTESIAN_POINT('Origin',(2.165,6.12279099046544,-0.625));
#1541=CARTESIAN_POINT('Origin',(0.675,6.12279099046544,0.625));
#1542=CARTESIAN_POINT('Ctrl Pts',(3.4401923631617E-31,24.4645270854911,
-2.80808362673746E-15));
#1543=CARTESIAN_POINT('Ctrl Pts',(2.80808362673746E-15,24.4645270854911,
-2.80808362673745E-15));
#1544=CARTESIAN_POINT('Ctrl Pts',(2.80808362673746E-15,24.4645270854911,
3.4401923631617E-31));
#1545=CARTESIAN_POINT('Ctrl Pts',(2.80808362673745E-15,24.4645270854911,
2.80808362673746E-15));
#1546=CARTESIAN_POINT('Ctrl Pts',(-3.4401923631617E-31,24.4645270854911,
2.80808362673746E-15));
#1547=CARTESIAN_POINT('Ctrl Pts',(-2.80808362673746E-15,24.4645270854911,
2.80808362673745E-15));
#1548=CARTESIAN_POINT('Ctrl Pts',(-2.80808362673746E-15,24.4645270854911,
-3.4401923631617E-31));
#1549=CARTESIAN_POINT('Ctrl Pts',(-2.80808362673745E-15,24.4645270854911,
-2.80808362673746E-15));
#1550=CARTESIAN_POINT('Ctrl Pts',(3.4401923631617E-31,24.4645270854911,
-2.80808362673746E-15));
#1551=CARTESIAN_POINT('Ctrl Pts',(-1.79903979732198E-15,24.4701844448918,
14.6902747679947));
#1552=CARTESIAN_POINT('Ctrl Pts',(-14.6902747679947,24.4701844448918,14.6902747679947));
#1553=CARTESIAN_POINT('Ctrl Pts',(-14.6902747679947,24.4701844448918,-1.79903979732198E-15));
#1554=CARTESIAN_POINT('Ctrl Pts',(-14.6902747679947,24.4701844448918,-14.6902747679947));
#1555=CARTESIAN_POINT('Ctrl Pts',(1.79903979732198E-15,24.4701844448918,
-14.6902747679947));
#1556=CARTESIAN_POINT('Ctrl Pts',(14.6902747679947,24.4701844448918,-14.6902747679947));
#1557=CARTESIAN_POINT('Ctrl Pts',(14.6902747679947,24.4701844448918,1.79903979732198E-15));
#1558=CARTESIAN_POINT('Ctrl Pts',(14.6902747679947,24.4701844448918,14.6902747679947));
#1559=CARTESIAN_POINT('Ctrl Pts',(-1.79903979732198E-15,24.4701844448918,
14.6902747679947));
#1560=CARTESIAN_POINT('Ctrl Pts',(-2.69880979093931E-15,14.2934053798042,
22.0374543322885));
#1561=CARTESIAN_POINT('Ctrl Pts',(-22.0374543322885,14.2934053798042,22.0374543322885));
#1562=CARTESIAN_POINT('Ctrl Pts',(-22.0374543322885,14.2934053798042,-2.69880979093931E-15));
#1563=CARTESIAN_POINT('Ctrl Pts',(-22.0374543322885,14.2934053798042,-22.0374543322885));
#1564=CARTESIAN_POINT('Ctrl Pts',(2.69880979093931E-15,14.2934053798042,
-22.0374543322885));
#1565=CARTESIAN_POINT('Ctrl Pts',(22.0374543322885,14.2934053798042,-22.0374543322885));
#1566=CARTESIAN_POINT('Ctrl Pts',(22.0374543322885,14.2934053798042,2.69880979093931E-15));
#1567=CARTESIAN_POINT('Ctrl Pts',(22.0374543322885,14.2934053798042,22.0374543322885));
#1568=CARTESIAN_POINT('Ctrl Pts',(-2.69880979093931E-15,14.2934053798042,
22.0374543322885));
#1569=CARTESIAN_POINT('Ctrl Pts',(-3.59857978455663E-15,4.11662631471658,
29.3846338965823));
#1570=CARTESIAN_POINT('Ctrl Pts',(-29.3846338965823,4.11662631471658,29.3846338965823));
#1571=CARTESIAN_POINT('Ctrl Pts',(-29.3846338965823,4.11662631471658,-3.59857978455663E-15));
#1572=CARTESIAN_POINT('Ctrl Pts',(-29.3846338965823,4.11662631471658,-29.3846338965823));
#1573=CARTESIAN_POINT('Ctrl Pts',(3.59857978455663E-15,4.11662631471658,
-29.3846338965823));
#1574=CARTESIAN_POINT('Ctrl Pts',(29.3846338965823,4.11662631471658,-29.3846338965823));
#1575=CARTESIAN_POINT('Ctrl Pts',(29.3846338965823,4.11662631471658,3.59857978455663E-15));
#1576=CARTESIAN_POINT('Ctrl Pts',(29.3846338965823,4.11662631471658,29.3846338965823));
#1577=CARTESIAN_POINT('Ctrl Pts',(-3.59857978455663E-15,4.11662631471658,
29.3846338965823));
#1578=CARTESIAN_POINT('Ctrl Pts',(-2.69880979093931E-15,-6.06015275037105,
22.0374543322885));
#1579=CARTESIAN_POINT('Ctrl Pts',(-22.0374543322885,-6.06015275037105,22.0374543322885));
#1580=CARTESIAN_POINT('Ctrl Pts',(-22.0374543322885,-6.06015275037105,-2.69880979093931E-15));
#1581=CARTESIAN_POINT('Ctrl Pts',(-22.0374543322885,-6.06015275037105,-22.0374543322885));
#1582=CARTESIAN_POINT('Ctrl Pts',(2.69880979093931E-15,-6.06015275037105,
-22.0374543322885));
#1583=CARTESIAN_POINT('Ctrl Pts',(22.0374543322885,-6.06015275037105,-22.0374543322885));
#1584=CARTESIAN_POINT('Ctrl Pts',(22.0374543322885,-6.06015275037105,2.69880979093931E-15));
#1585=CARTESIAN_POINT('Ctrl Pts',(22.0374543322885,-6.06015275037105,22.0374543322885));
#1586=CARTESIAN_POINT('Ctrl Pts',(-2.69880979093931E-15,-6.06015275037105,
22.0374543322885));
#1587=CARTESIAN_POINT('Ctrl Pts',(-1.79903979732198E-15,-16.2369318154587,
14.6902747679947));
#1588=CARTESIAN_POINT('Ctrl Pts',(-14.6902747679947,-16.2369318154587,14.6902747679947));
#1589=CARTESIAN_POINT('Ctrl Pts',(-14.6902747679947,-16.2369318154587,-1.79903979732198E-15));
#1590=CARTESIAN_POINT('Ctrl Pts',(-14.6902747679947,-16.2369318154587,-14.6902747679947));
#1591=CARTESIAN_POINT('Ctrl Pts',(1.79903979732198E-15,-16.2369318154587,
-14.6902747679947));
#1592=CARTESIAN_POINT('Ctrl Pts',(14.6902747679947,-16.2369318154587,-14.6902747679947));
#1593=CARTESIAN_POINT('Ctrl Pts',(14.6902747679947,-16.2369318154587,1.79903979732198E-15));
#1594=CARTESIAN_POINT('Ctrl Pts',(14.6902747679947,-16.2369318154587,14.6902747679947));
#1595=CARTESIAN_POINT('Ctrl Pts',(-1.79903979732198E-15,-16.2369318154587,
14.6902747679947));
#1596=CARTESIAN_POINT('Ctrl Pts',(3.4401923631617E-31,-16.2312744560579,
-2.80808362673746E-15));
#1597=CARTESIAN_POINT('Ctrl Pts',(2.80808362673746E-15,-16.2312744560579,
-2.80808362673745E-15));
#1598=CARTESIAN_POINT('Ctrl Pts',(2.80808362673746E-15,-16.2312744560579,
3.4401923631617E-31));
#1599=CARTESIAN_POINT('Ctrl Pts',(2.80808362673745E-15,-16.2312744560579,
2.80808362673746E-15));
#1600=CARTESIAN_POINT('Ctrl Pts',(-3.4401923631617E-31,-16.2312744560579,
2.80808362673746E-15));
#1601=CARTESIAN_POINT('Ctrl Pts',(-2.80808362673746E-15,-16.2312744560579,
2.80808362673745E-15));
#1602=CARTESIAN_POINT('Ctrl Pts',(-2.80808362673746E-15,-16.2312744560579,
-3.4401923631617E-31));
#1603=CARTESIAN_POINT('Ctrl Pts',(-2.80808362673745E-15,-16.2312744560579,
-2.80808362673746E-15));
#1604=CARTESIAN_POINT('Ctrl Pts',(3.4401923631617E-31,-16.2312744560579,
-2.80808362673746E-15));
#1605=CARTESIAN_POINT('',(0.,24.4645270854911,2.80808362673746E-15));
#1606=CARTESIAN_POINT('',(2.63599537723666E-15,14.9729054668464,21.5245357197842));
#1607=CARTESIAN_POINT('Ctrl Pts',(3.4401923631617E-31,24.4645270854911,
-2.80808362673746E-15));
#1608=CARTESIAN_POINT('Ctrl Pts',(3.55308730946188E-15,24.4699324437228,
14.035911792757));
#1609=CARTESIAN_POINT('Ctrl Pts',(2.63599537723666E-15,14.9729054668464,
21.5245357197842));
#1610=CARTESIAN_POINT('Origin',(0.,14.9729054668464,0.));
#1611=CARTESIAN_POINT('Ctrl Pts',(-7.19816316714729E-32,26.864527334232,
5.87637577487143E-16));
#1612=CARTESIAN_POINT('Ctrl Pts',(-5.87637577487143E-16,26.864527334232,
5.87637577487143E-16));
#1613=CARTESIAN_POINT('Ctrl Pts',(-5.87637577487143E-16,26.864527334232,
-7.19816316714729E-32));
#1614=CARTESIAN_POINT('Ctrl Pts',(-5.87637577487143E-16,26.864527334232,
-5.87637577487143E-16));
#1615=CARTESIAN_POINT('Ctrl Pts',(7.19816316714729E-32,26.864527334232,
-5.87637577487143E-16));
#1616=CARTESIAN_POINT('Ctrl Pts',(5.87637577487143E-16,26.864527334232,
-5.87637577487143E-16));
#1617=CARTESIAN_POINT('Ctrl Pts',(5.87637577487143E-16,26.864527334232,
7.19816316714729E-32));
#1618=CARTESIAN_POINT('Ctrl Pts',(5.87637577487143E-16,26.864527334232,
5.87637577487143E-16));
#1619=CARTESIAN_POINT('Ctrl Pts',(-7.19816316714729E-32,26.864527334232,
5.87637577487143E-16));
#1620=CARTESIAN_POINT('Ctrl Pts',(-2.01115486054521E-15,26.8701844724909,
16.4223257019531));
#1621=CARTESIAN_POINT('Ctrl Pts',(-16.4223257019531,26.8701844724909,16.4223257019531));
#1622=CARTESIAN_POINT('Ctrl Pts',(-16.4223257019531,26.8701844724909,-2.01115486054521E-15));
#1623=CARTESIAN_POINT('Ctrl Pts',(-16.4223257019531,26.8701844724909,-16.4223257019531));
#1624=CARTESIAN_POINT('Ctrl Pts',(2.01115486054521E-15,26.8701844724909,
-16.4223257019531));
#1625=CARTESIAN_POINT('Ctrl Pts',(16.4223257019531,26.8701844724909,-16.4223257019531));
#1626=CARTESIAN_POINT('Ctrl Pts',(16.4223257019531,26.8701844724909,2.01115486054521E-15));
#1627=CARTESIAN_POINT('Ctrl Pts',(16.4223257019531,26.8701844724909,16.4223257019531));
#1628=CARTESIAN_POINT('Ctrl Pts',(-2.01115486054521E-15,26.8701844724909,
16.4223257019531));
#1629=CARTESIAN_POINT('Ctrl Pts',(-3.0169823662225E-15,15.4934053936037,
24.6355305735747));
#1630=CARTESIAN_POINT('Ctrl Pts',(-24.6355305735747,15.4934053936037,24.6355305735747));
#1631=CARTESIAN_POINT('Ctrl Pts',(-24.6355305735747,15.4934053936037,-3.0169823662225E-15));
#1632=CARTESIAN_POINT('Ctrl Pts',(-24.6355305735747,15.4934053936037,-24.6355305735747));
#1633=CARTESIAN_POINT('Ctrl Pts',(3.0169823662225E-15,15.4934053936037,
-24.6355305735747));
#1634=CARTESIAN_POINT('Ctrl Pts',(24.6355305735747,15.4934053936037,-24.6355305735747));
#1635=CARTESIAN_POINT('Ctrl Pts',(24.6355305735747,15.4934053936037,3.0169823662225E-15));
#1636=CARTESIAN_POINT('Ctrl Pts',(24.6355305735747,15.4934053936037,24.6355305735747));
#1637=CARTESIAN_POINT('Ctrl Pts',(-3.0169823662225E-15,15.4934053936037,
24.6355305735747));
#1638=CARTESIAN_POINT('Ctrl Pts',(-4.02280987189978E-15,4.11662631471658,
32.8487354451963));
#1639=CARTESIAN_POINT('Ctrl Pts',(-32.8487354451963,4.11662631471658,32.8487354451963));
#1640=CARTESIAN_POINT('Ctrl Pts',(-32.8487354451963,4.11662631471658,-4.02280987189978E-15));
#1641=CARTESIAN_POINT('Ctrl Pts',(-32.8487354451963,4.11662631471658,-32.8487354451963));
#1642=CARTESIAN_POINT('Ctrl Pts',(4.02280987189978E-15,4.11662631471658,
-32.8487354451963));
#1643=CARTESIAN_POINT('Ctrl Pts',(32.8487354451963,4.11662631471658,-32.8487354451963));
#1644=CARTESIAN_POINT('Ctrl Pts',(32.8487354451963,4.11662631471658,4.02280987189978E-15));
#1645=CARTESIAN_POINT('Ctrl Pts',(32.8487354451963,4.11662631471658,32.8487354451963));
#1646=CARTESIAN_POINT('Ctrl Pts',(-4.02280987189978E-15,4.11662631471658,
32.8487354451963));
#1647=CARTESIAN_POINT('Ctrl Pts',(-3.0169823662225E-15,-7.26015276417059,
24.6355305735747));
#1648=CARTESIAN_POINT('Ctrl Pts',(-24.6355305735747,-7.26015276417059,24.6355305735747));
#1649=CARTESIAN_POINT('Ctrl Pts',(-24.6355305735747,-7.26015276417059,-3.0169823662225E-15));
#1650=CARTESIAN_POINT('Ctrl Pts',(-24.6355305735747,-7.26015276417059,-24.6355305735747));
#1651=CARTESIAN_POINT('Ctrl Pts',(3.0169823662225E-15,-7.26015276417059,
-24.6355305735747));
#1652=CARTESIAN_POINT('Ctrl Pts',(24.6355305735747,-7.26015276417059,-24.6355305735747));
#1653=CARTESIAN_POINT('Ctrl Pts',(24.6355305735747,-7.26015276417059,3.0169823662225E-15));
#1654=CARTESIAN_POINT('Ctrl Pts',(24.6355305735747,-7.26015276417059,24.6355305735747));
#1655=CARTESIAN_POINT('Ctrl Pts',(-3.0169823662225E-15,-7.26015276417059,
24.6355305735747));
#1656=CARTESIAN_POINT('Ctrl Pts',(-2.01115486054521E-15,-18.6369318430578,
16.4223257019531));
#1657=CARTESIAN_POINT('Ctrl Pts',(-16.4223257019531,-18.6369318430578,16.4223257019531));
#1658=CARTESIAN_POINT('Ctrl Pts',(-16.4223257019531,-18.6369318430578,-2.01115486054521E-15));
#1659=CARTESIAN_POINT('Ctrl Pts',(-16.4223257019531,-18.6369318430578,-16.4223257019531));
#1660=CARTESIAN_POINT('Ctrl Pts',(2.01115486054521E-15,-18.6369318430578,
-16.4223257019531));
#1661=CARTESIAN_POINT('Ctrl Pts',(16.4223257019531,-18.6369318430578,-16.4223257019531));
#1662=CARTESIAN_POINT('Ctrl Pts',(16.4223257019531,-18.6369318430578,2.01115486054521E-15));
#1663=CARTESIAN_POINT('Ctrl Pts',(16.4223257019531,-18.6369318430578,16.4223257019531));
#1664=CARTESIAN_POINT('Ctrl Pts',(-2.01115486054521E-15,-18.6369318430578,
16.4223257019531));
#1665=CARTESIAN_POINT('Ctrl Pts',(-7.19816316714729E-32,-18.6312747047989,
5.87637577487143E-16));
#1666=CARTESIAN_POINT('Ctrl Pts',(-5.87637577487143E-16,-18.6312747047989,
5.87637577487143E-16));
#1667=CARTESIAN_POINT('Ctrl Pts',(-5.87637577487143E-16,-18.6312747047989,
-7.19816316714729E-32));
#1668=CARTESIAN_POINT('Ctrl Pts',(-5.87637577487143E-16,-18.6312747047989,
-5.87637577487143E-16));
#1669=CARTESIAN_POINT('Ctrl Pts',(7.19816316714729E-32,-18.6312747047989,
-5.87637577487143E-16));
#1670=CARTESIAN_POINT('Ctrl Pts',(5.87637577487143E-16,-18.6312747047989,
-5.87637577487143E-16));
#1671=CARTESIAN_POINT('Ctrl Pts',(5.87637577487143E-16,-18.6312747047989,
7.19816316714729E-32));
#1672=CARTESIAN_POINT('Ctrl Pts',(5.87637577487143E-16,-18.6312747047989,
5.87637577487143E-16));
#1673=CARTESIAN_POINT('Ctrl Pts',(-7.19816316714729E-32,-18.6312747047989,
5.87637577487143E-16));
#1674=CARTESIAN_POINT('',(25.000000372529,14.9729054668464,0.));
#1675=CARTESIAN_POINT('',(-3.06161704349003E-15,14.9729054668464,25.000000372529));
#1676=CARTESIAN_POINT('Origin',(0.,14.9729054668464,0.));
#1677=CARTESIAN_POINT('Origin',(0.,14.9729054668464,0.));
#1678=CARTESIAN_POINT('',(-2.22044604925031E-15,26.864527334232,0.));
#1679=CARTESIAN_POINT('Ctrl Pts',(-3.06161704349003E-15,14.9729054668464,
25.000000372529));
#1680=CARTESIAN_POINT('Ctrl Pts',(-3.03982217787836E-15,15.2350673684996,
24.8220317890415));
#1681=CARTESIAN_POINT('Ctrl Pts',(-3.0169823662225E-15,15.4934053936037,
24.6355305735747));
#1682=CARTESIAN_POINT('Ctrl Pts',(-2.01115486054521E-15,26.8701844724909,
16.4223257019531));
#1683=CARTESIAN_POINT('Ctrl Pts',(-7.19816316714729E-32,26.864527334232,
5.87637577487143E-16));
#1684=CARTESIAN_POINT('Origin',(0.,14.9729054668464,0.));
#1685=CARTESIAN_POINT('Origin',(0.,22.,0.));
#1686=CARTESIAN_POINT('',(-3.5,22.,4.28626379701574E-16));
#1687=CARTESIAN_POINT('Origin',(-6.5,22.,7.9602041944578E-16));
#1688=CARTESIAN_POINT('Origin',(0.,22.,4.02209924762224E-63));
#1689=CARTESIAN_POINT('Origin',(0.,20.,0.));
#1690=CARTESIAN_POINT('',(-2.5,20.,3.06161699786838E-16));
#1691=CARTESIAN_POINT('Origin',(-5.5,20.,6.73555739531044E-16));
#1692=CARTESIAN_POINT('Origin',(0.,20.,4.02209924762224E-63));
#1693=UNCERTAINTY_MEASURE_WITH_UNIT(LENGTH_MEASURE(0.01),#1697,
'DISTANCE_ACCURACY_VALUE',
'Maximum model space distance between geometric entities at asserted c
onnectivities');
#1694=UNCERTAINTY_MEASURE_WITH_UNIT(LENGTH_MEASURE(0.01),#1697,
'DISTANCE_ACCURACY_VALUE',
'Maximum model space distance between geometric entities at asserted c
onnectivities');
#1695=(
GEOMETRIC_REPRESENTATION_CONTEXT(3)
GLOBAL_UNCERTAINTY_ASSIGNED_CONTEXT((#1693))
GLOBAL_UNIT_ASSIGNED_CONTEXT((#1697,#1699,#1700))
REPRESENTATION_CONTEXT('','3D')
);
#1696=(
GEOMETRIC_REPRESENTATION_CONTEXT(3)
GLOBAL_UNCERTAINTY_ASSIGNED_CONTEXT((#1694))
GLOBAL_UNIT_ASSIGNED_CONTEXT((#1697,#1699,#1700))
REPRESENTATION_CONTEXT('','3D')
);
#1697=(
LENGTH_UNIT()
NAMED_UNIT(*)
SI_UNIT(.MILLI.,.METRE.)
);
#1698=(
LENGTH_UNIT()
NAMED_UNIT(*)
SI_UNIT($,.METRE.)
);
#1699=(
NAMED_UNIT(*)
PLANE_ANGLE_UNIT()
SI_UNIT($,.RADIAN.)
);
#1700=(
NAMED_UNIT(*)
SI_UNIT($,.STERADIAN.)
SOLID_ANGLE_UNIT()
);
#1701=SHAPE_DEFINITION_REPRESENTATION(#1702,#1703);
#1702=PRODUCT_DEFINITION_SHAPE('',$,#1705);
#1703=SHAPE_REPRESENTATION('',(#948),#1695);
#1704=PRODUCT_DEFINITION_CONTEXT('part definition',#1709,'design');
#1705=PRODUCT_DEFINITION('(Unsaved)','(Unsaved)',#1706,#1704);
#1706=PRODUCT_DEFINITION_FORMATION('',$,#1711);
#1707=PRODUCT_RELATED_PRODUCT_CATEGORY('(Unsaved)','(Unsaved)',(#1711));
#1708=APPLICATION_PROTOCOL_DEFINITION('international standard',
'automotive_design',2009,#1709);
#1709=APPLICATION_CONTEXT(
'Core Data for Automotive Mechanical Design Process');
#1710=PRODUCT_CONTEXT('part definition',#1709,'mechanical');
#1711=PRODUCT('(Unsaved)','(Unsaved)',$,(#1710));
#1712=PRESENTATION_STYLE_ASSIGNMENT((#1714));
#1713=PRESENTATION_STYLE_ASSIGNMENT((#1715));
#1714=SURFACE_STYLE_USAGE(.BOTH.,#1716);
#1715=SURFACE_STYLE_USAGE(.BOTH.,#1717);
#1716=SURFACE_SIDE_STYLE('',(#1718));
#1717=SURFACE_SIDE_STYLE('',(#1719));
#1718=SURFACE_STYLE_FILL_AREA(#1720);
#1719=SURFACE_STYLE_FILL_AREA(#1721);
#1720=FILL_AREA_STYLE('Steel - Satin',(#1722));
#1721=FILL_AREA_STYLE('ABS (White)',(#1723));
#1722=FILL_AREA_STYLE_COLOUR('Steel - Satin',#1724);
#1723=FILL_AREA_STYLE_COLOUR('ABS (White)',#1725);
#1724=COLOUR_RGB('Steel - Satin',0.627450980392157,0.627450980392157,0.627450980392157);
#1725=COLOUR_RGB('ABS (White)',0.964705882352941,0.964705882352941,0.952941176470588);
ENDSEC;
END-ISO-10303-21;
